<mxfile host="Electron" agent="Mozilla/5.0 (Macintosh; Intel Mac OS X 10_15_7) AppleWebKit/537.36 (KHTML, like Gecko) draw.io/24.7.17 Chrome/128.0.6613.36 Electron/32.0.1 Safari/537.36" version="24.7.17">
  <diagram name="페이지-1" id="aTBDCzywBEe_XFeF6Bqp">
    <mxGraphModel dx="1614" dy="574" grid="1" gridSize="10" guides="1" tooltips="1" connect="1" arrows="1" fold="1" page="1" pageScale="1" pageWidth="827" pageHeight="1169" math="0" shadow="0">
      <root>
        <mxCell id="0" />
        <mxCell id="1" parent="0" />
        <mxCell id="EV37W_cAb1lumJegeBz7-1" value="" style="rounded=0;whiteSpace=wrap;html=1;" vertex="1" parent="1">
          <mxGeometry x="-100" y="80" width="770" height="430" as="geometry" />
        </mxCell>
        <mxCell id="EV37W_cAb1lumJegeBz7-6" value="" style="rounded=1;whiteSpace=wrap;html=1;" vertex="1" parent="1">
          <mxGeometry x="80" y="160" width="560" height="240" as="geometry" />
        </mxCell>
        <mxCell id="EV37W_cAb1lumJegeBz7-15" style="edgeStyle=orthogonalEdgeStyle;rounded=0;orthogonalLoop=1;jettySize=auto;html=1;exitX=1;exitY=0.25;exitDx=0;exitDy=0;entryX=0;entryY=0.25;entryDx=0;entryDy=0;" edge="1" parent="1" source="EV37W_cAb1lumJegeBz7-2" target="EV37W_cAb1lumJegeBz7-3">
          <mxGeometry relative="1" as="geometry" />
        </mxCell>
        <mxCell id="EV37W_cAb1lumJegeBz7-28" style="edgeStyle=orthogonalEdgeStyle;rounded=0;orthogonalLoop=1;jettySize=auto;html=1;exitX=0.5;exitY=0;exitDx=0;exitDy=0;entryX=0;entryY=0.5;entryDx=0;entryDy=0;" edge="1" parent="1" source="EV37W_cAb1lumJegeBz7-2" target="EV37W_cAb1lumJegeBz7-27">
          <mxGeometry relative="1" as="geometry" />
        </mxCell>
        <mxCell id="EV37W_cAb1lumJegeBz7-2" value="&lt;div&gt;&lt;b style=&quot;background-color: rgb(102, 255, 102);&quot;&gt;&lt;br&gt;&lt;/b&gt;&lt;/div&gt;&lt;b style=&quot;background-color: rgb(102, 255, 102);&quot;&gt;&lt;div&gt;&lt;b style=&quot;background-color: rgb(102, 255, 102);&quot;&gt;&lt;br&gt;&lt;/b&gt;&lt;/div&gt;Host&lt;/b&gt;&lt;div&gt;Nginx&lt;/div&gt;" style="rounded=1;whiteSpace=wrap;html=1;" vertex="1" parent="1">
          <mxGeometry x="110" y="250" width="120" height="100" as="geometry" />
        </mxCell>
        <mxCell id="EV37W_cAb1lumJegeBz7-16" style="edgeStyle=orthogonalEdgeStyle;rounded=0;orthogonalLoop=1;jettySize=auto;html=1;exitX=0;exitY=0.75;exitDx=0;exitDy=0;entryX=1;entryY=0.75;entryDx=0;entryDy=0;" edge="1" parent="1" source="EV37W_cAb1lumJegeBz7-3" target="EV37W_cAb1lumJegeBz7-2">
          <mxGeometry relative="1" as="geometry" />
        </mxCell>
        <mxCell id="EV37W_cAb1lumJegeBz7-19" style="edgeStyle=orthogonalEdgeStyle;rounded=0;orthogonalLoop=1;jettySize=auto;html=1;exitX=1;exitY=0.25;exitDx=0;exitDy=0;entryX=0;entryY=0.25;entryDx=0;entryDy=0;" edge="1" parent="1" source="EV37W_cAb1lumJegeBz7-3" target="EV37W_cAb1lumJegeBz7-5">
          <mxGeometry relative="1" as="geometry" />
        </mxCell>
        <mxCell id="EV37W_cAb1lumJegeBz7-3" value="&lt;div&gt;&lt;b style=&quot;background-color: rgb(255, 255, 102);&quot;&gt;&lt;br&gt;&lt;/b&gt;&lt;/div&gt;&lt;b style=&quot;background-color: rgb(255, 255, 102);&quot;&gt;&lt;div&gt;&lt;b style=&quot;background-color: rgb(255, 255, 102);&quot;&gt;&lt;br&gt;&lt;/b&gt;&lt;/div&gt;Harbor&lt;/b&gt;&lt;div&gt;Nginx&lt;/div&gt;" style="rounded=1;whiteSpace=wrap;html=1;" vertex="1" parent="1">
          <mxGeometry x="294" y="250" width="120" height="100" as="geometry" />
        </mxCell>
        <mxCell id="EV37W_cAb1lumJegeBz7-20" style="edgeStyle=orthogonalEdgeStyle;rounded=0;orthogonalLoop=1;jettySize=auto;html=1;exitX=0;exitY=0.75;exitDx=0;exitDy=0;entryX=1;entryY=0.75;entryDx=0;entryDy=0;" edge="1" parent="1" source="EV37W_cAb1lumJegeBz7-5" target="EV37W_cAb1lumJegeBz7-3">
          <mxGeometry relative="1" as="geometry" />
        </mxCell>
        <mxCell id="EV37W_cAb1lumJegeBz7-5" value="&lt;div&gt;&lt;br&gt;&lt;/div&gt;Harbor&lt;div&gt;Applications...&lt;/div&gt;" style="rounded=1;whiteSpace=wrap;html=1;" vertex="1" parent="1">
          <mxGeometry x="480" y="250" width="120" height="100" as="geometry" />
        </mxCell>
        <mxCell id="EV37W_cAb1lumJegeBz7-4" value="" style="shape=image;verticalLabelPosition=bottom;labelBackgroundColor=default;verticalAlign=top;aspect=fixed;imageAspect=0;image=https://raw.githubusercontent.com/goharbor/website/master/docs/img/readme/harbor_logo.png;" vertex="1" parent="1">
          <mxGeometry x="492.59" y="260" width="94.81" height="26.94" as="geometry" />
        </mxCell>
        <mxCell id="EV37W_cAb1lumJegeBz7-7" value="Server (Machine)" style="text;strokeColor=none;align=center;fillColor=none;html=1;verticalAlign=middle;whiteSpace=wrap;rounded=0;" vertex="1" parent="1">
          <mxGeometry x="80" y="180" width="130" height="30" as="geometry" />
        </mxCell>
        <mxCell id="EV37W_cAb1lumJegeBz7-13" value="" style="shape=image;verticalLabelPosition=bottom;labelBackgroundColor=default;verticalAlign=top;aspect=fixed;imageAspect=0;image=data:image/png,iVBORw0KGgoAAAANSUhEUgAAApwAAAKkCAYAAACtYu9lAAAMPWlDQ1BJQ0MgUHJvZmlsZQAASImVVwdYU8kWnluSkJDQAqFICb0JAtKREkILICBVsBGSAKHEEAgqdmRRwbWLKNjQVRFF1wLIWhBRbItg74sFFGVdLNjLmxTQdV/53uSbO3/+OfOfM+fOvXcGAPUWrlicg2oAkCsqkMSGBjLHJ6cwSb2ADH+qQBNocHn5YlZMTCSAZaj9e3lzDSCy9rKDTOuf/f+1aPIF+TwAkBiI0/j5vFyIDwKAV/PEkgIAiDLefFqBWIZhBdoSGCDEi2Q4Q4GrZThNgffJbeJj2RC3AaBC5XIlGQCodUKeWcjLgBpqAxA7ifhCEQDqTIj9cnOn8iFOhdgG2oghlul7pn2nk/E3zbRhTS43Yxgr5iIvKkHCfHEOd8b/mY7/XXJzpEM+rGClZkrCYmVzhnm7kT01QoapEPeL0qKiIdaC+J2QL7eHGKVkSsMSFPaoIS+fDXMGGBA78blBERAbQhwiyomKVPJp6cIQDsRwhaDThQWceIj1IF4kyA+OU9pslkyNVfpCG9IlbJaSP8OVyP3KfN2TZiewlPovMwUcpT6mVpQZnwQxBWKLQmFiFMRqEDvmZ8dFKG3GFGWyo4ZsJNJYWfwWEMcKRKGBCn2sMF0SEqu0L8vNH5ovtjlTyIlS4v0FmfFhivxgbTyuPH44F6xTIGIlDOkI8sdHDs2FLwgKVswdeyIQJcQpdd6JCwJjFWNxijgnRmmPmwlyQmW8GcSu+YVxyrF4YgFckAp9PF1cEBOviBMvyuKGxyjiwZeDSMAGQYAJpLCmgakgCwg7+hv74T9FTwjgAgnIAALgoGSGRiTJe0TwGgeKwJ8QCUD+8LhAea8AFEL+8zCruDqAdHlvoXxENuiFOBdEgBz4XyofJRr2lggeQUb4D+9cWHkw3hxYZf3/nh9ivzEsyEQqGemQR6b6kCUxmBhEDCOGEG1xA9wP98Ej4TUAVhfcE/camsc3e0IvoYvwgHCV0E24OUVYLPkhyrGgG+qHKHOR9n0ucCuo6YYH4r5QHSrjDNwAOOCu0A8L94ee3SDLVsYtywrzB+2/zeC7u6G0IzuRUbIuOYBs8+NINTs1t2EVWa6/z48i1rThfLOHe370z/4u+3zYRvxoiS3CDmDt2AnsLHYEawRM7DjWhF3Ajsrw8Op6JF9dQ95i5fFkQx3hP/wN3VlZJvOd6pz6nD4p+goE02XvaMCeKp4hEWZkFjBZ8IsgYHJEPMeRTBcnFxcAZN8XxevrFUP+3UAY575xeS0AeJVBMuMbxzUH4HAvAPQ33zjzl/CxWQ7A0U6eVFKo4HDZhQDfEurwSdMHxsAc2MD5uAB34AMCQDAIB9EgHiSDyTD6TLjOJWAamAXmg1JQDpaDNWA92AS2gp1gD9gPGsERcAKcBudBJ7gKbsPV0wOegQHwBnxEEISE0BA6oo+YIJaIPeKCeCJ+SDASicQiyUgqkoGIECkyC1mAlCMrkfXIFqQW+RU5jJxAziJdyE3kPtKHvEQ+oBhKRbVRI9QKHYV6oiw0Ao1HJ6EZaB5ahJagS9FKtAbdjTagJ9Dz6FW0G32GDmIAU8UYmCnmgHlibCwaS8HSMQk2ByvDKrAarB5rhvf5MtaN9WPvcSJOx5m4A1zBYXgCzsPz8Dn4Enw9vhNvwNvwy/h9fAD/QqARDAn2BG8ChzCekEGYRiglVBC2Ew4RTsFnqYfwhkgkMojWRA/4LCYTs4gziUuIG4h7iS3ELuJD4iCJRNIn2ZN8SdEkLqmAVEpaR9pNOk66ROohvVNRVTFRcVEJUUlREakUq1So7FI5pnJJ5bHKR7IG2ZLsTY4m88kzyMvI28jN5IvkHvJHiibFmuJLiadkUeZTKin1lFOUO5RXqqqqZqpequNUharzVCtV96meUb2v+p6qRbWjsqkTqVLqUuoOagv1JvUVjUazogXQUmgFtKW0WtpJ2j3aOzW6mqMaR42vNletSq1B7ZLac3WyuqU6S32yepF6hfoB9Yvq/RpkDSsNtgZXY45GlcZhjesag5p0TWfNaM1czSWauzTPaj7RImlZaQVr8bVKtLZqndR6SMfo5nQ2nUdfQN9GP0Xv0SZqW2tztLO0y7X3aHdoD+ho6bjqJOpM16nSOarTzcAYVgwOI4exjLGfcY3xQddIl6Ur0F2sW697Sfet3gi9AD2BXpneXr2reh/0mfrB+tn6K/Qb9e8a4AZ2BuMMphlsNDhl0D9Ce4TPCN6IshH7R9wyRA3tDGMNZxpuNbxgOGhkbBRqJDZaZ3TSqN+YYRxgnGW82viYcZ8J3cTPRGiy2uS4yVOmDpPFzGFWMtuYA6aGpmGmUtMtph2mH82szRLMis32mt01p5h7mqebrzZvNR+wMLEYazHLos7iliXZ0tMy03KtZbvlWytrqySrhVaNVk+s9aw51kXWddZ3bGg2/jZ5NjU2V2yJtp622bYbbDvtUDs3u0y7KruL9qi9u73QfoN910jCSK+RopE1I687UB1YDoUOdQ73HRmOkY7Fjo2Oz0dZjEoZtWJU+6gvTm5OOU7bnG47azmHOxc7Nzu/dLFz4blUuVwZTRsdMnru6KbRL1ztXQWuG11vuNHdxrotdGt1++zu4S5xr3fv87DwSPWo9rjuqe0Z47nE84wXwSvQa67XEa/33u7eBd77vf/ycfDJ9tnl82SM9RjBmG1jHvqa+XJ9t/h2+zH9Uv02+3X7m/pz/Wv8HwSYB/ADtgc8Ztmysli7Wc8DnQIlgYcC37K92bPZLUFYUGhQWVBHsFZwQvD64HshZiEZIXUhA6FuoTNDW8IIYRFhK8Kuc4w4PE4tZyDcI3x2eFsENSIuYn3Eg0i7SElk81h0bPjYVWPvRFlGiaIao0E0J3pV9N0Y65i8mN/GEcfFjKsa1xvrHDsrtj2OHjclblfcm/jA+GXxtxNsEqQJrYnqiRMTaxPfJgUlrUzqHj9q/Ozx55MNkoXJTSmklMSU7SmDE4InrJnQM9FtYunEa5OsJ02fdHayweScyUenqE/hTjmQSkhNSt2V+okbza3hDqZx0qrTBnhs3lreM34AfzW/T+ArWCl4nO6bvjL9SYZvxqqMvkz/zIrMfiFbuF74Iissa1PW2+zo7B3ZX3OScvbmquSm5h4WaYmyRW1TjadOn9oltheXirvzvPPW5A1IIiTb85H8SflNBdpwI39BaiP9SXq/0K+wqvDdtMRpB6ZrThdNvzDDbsbiGY+LQop+mYnP5M1snWU6a/6s+7NZs7fMQeakzWmdaz63ZG7PvNB5O+dT5mfP/73YqXhl8esFSQuaS4xK5pU8/Cn0p7pStVJJ6fWFPgs3LcIXCRd1LB69eN3iL2X8snPlTuUV5Z+W8Jac+9n558qfvy5NX9qxzH3ZxuXE5aLl11b4r9i5UnNl0cqHq8aualjNXF22+vWaKWvOVrhWbFpLWStd210ZWdm0zmLd8nWf1meuv1oVWLW32rB6cfXbDfwNlzYGbKzfZLSpfNOHzcLNN7aEbmmosaqp2ErcWri1d1vitvZfPH+p3W6wvXz75x2iHd07Y3e21XrU1u4y3LWsDq2T1vXtnri7c0/QnqZ6h/otexl7y/eBfdJ9T39N/fXa/oj9rQc8D9QftDxYfYh+qKwBaZjRMNCY2djdlNzUdTj8cGuzT/Oh3xx/23HE9EjVUZ2jy45RjpUc+3q86Phgi7il/0TGiYetU1pvnxx/8krbuLaOUxGnzpwOOX2yndV+/IzvmSNnvc8ePud5rvG8+/mGC24XDv3u9vuhDveOhoseF5s6vTqbu8Z0Hbvkf+nE5aDLp69wrpy/GnW161rCtRvXJ17vvsG/8eRmzs0Xtwpvfbw97w7hTtldjbsV9wzv1fxh+8febvfuo/eD7l94EPfg9kPew2eP8h996inppfVWPDZ5XPvE5cmRvpC+zqcTnvY8Ez/72F/6p+af1c9tnh/8K+CvCwPjB3peSF58fbnklf6rHa9dX7cOxgzee5P75uPbsnf673a+93zf/iHpw+OP0z6RPlV+tv3c/CXiy52vuV+/irkSrnwrgMGKpqcD8HIHALRkuHeA5zPKBMX5T14QxZlVjsB/woozory4A7AjAICEeQBEwj3KRlgtIabCVraFjw8A6OjRw3XorCY/V8oKEZ4DNtvJ0MUxmu/AD0Vx5vwu7h9bIFN1BT+2/wJSYHn1VJLu6QAAADhlWElmTU0AKgAAAAgAAYdpAAQAAAABAAAAGgAAAAAAAqACAAQAAAABAAACnKADAAQAAAABAAACpAAAAACVUpQtAABAAElEQVR4Ae3dT4tm2X0f8Nvqpk0XjoyQgpwZGmZ64+xky6OFVsGzEoigvITxzEIQkEHb4IUXgpCVwYKAFjOeRd6AFsZejcnKC40sK4uQEJgeaGaSEGllqIamms5zqvt2PVX1/Ln3PPfPOef3eaCnq57n3nPP+fzuM/Xte+556s5Xv/bNF50HAQIECBAgQIAAgZkEvjJTu5olQIAAAQIECBAgcCkgcDoRCBAgQIAAAQIEZhUQOGfl1TgBAgQIECBAgIDA6RwgQIAAAQIECBCYVUDgnJVX4wQIECBAgAABAgKnc4AAAQIECBAgQGBWAYFzVl6NEyBAgAABAgQICJzOAQIECBAgQIAAgVkF7s3ausYJECBQgcD9t88ue3nvT77+urcXj14+1z9x77Pz/svuxedPL79++slvXj/nCwIECBDYL3DHbxraj+MVAgTaFEgBsw+XN4NlzojvfvLby90E0Bw9+xAgEEFA4IxQZWMkQOBSoA+aU4TMfaTC5z4ZzxMgEFnAlHrk6hs7gSACD979Rvf83ZfT5Rczj7k/zoNXx3HVc2ZwzRMgUIWAwFlFmXSSAIEcgT5oPs/Z+cR9toPn88fn3bPNHw8CBAhEFTClHrXyxk2gYYHLRUAfPCxqhGmq3dXOokqiMwQILCggcC6I7VAECMwrsMQ9mqeOQPA8VdD+BAjUKCBw1lg1fSZA4JpADUHzWoc33wieN0V8T4BAywLu4Wy5usZGIIBAf5/m3IuBpqZM93imhUWm2aeW1R4BAiUKuMJZYlX0iQCBowI1XtXcNyhXO/fJeJ4AgVYEBM5WKmkcBIIItBQ0b5ZM8Lwp4nsCBFoREDhbqaRxEAggcPb+w27OD20vgTD9Cs30qzNNtZdQDX0gQGAqAfdwTiWpHQIEZhOo9T7NHJDLQL35Pe7u78zRsw8BAqUKuMJZamX0iwCBruXp86HlNc0+VMp2BAiULCBwllwdfSMQVEDQvF14wfO2iWcIEKhHwJR6PbXSUwIhBCJNn48paP8xSmkf93eOkbMtAQIlCAicJVRBHwgQ6PqgucbvPa+Ff/v3swudtVRNPwkQSAKm1J0HBAisKmD6PJ/fNHu+nT0JEFhWQOBc1tvRCBB4JSBoTncqCJ7TWWqJAIF5BEypz+OqVQIEDgj00+e1/TrKA0Na9aX+/s7nj8+7Z5s/HgQIEChNwBXO0iqiPwQaFkhXNbsPHjY8wvWH5mrn+jXQAwIEbgsInLdNPEOAwMQCps8nBh3QnOA5AMkmBAgsJiBwLkbtQATiCQia69dc8Fy/BnpAgEDXuYfTWUCAwCwC7tOchXV0o/39nT5GaTSdHQgQmFDAFc4JMTVFgEDn11EWfBK42llwcXSNQOMCAmfjBTY8AksJmD5fSvr04wiepxtqgQCBcQIC5zgvWxMgsEPg7P2H3cWjzQp0j2oE7n123r34/Klfk1lNxXSUQN0C7uGsu356T2BVAfdprsp/0sEv/4Gw+UfCg00r7u88idLOBAgMEHCFcwCSTQgQuC5g+vy6RwvfmWZvoYrGQKBcAYGz3NroGYHiBATN4koyeYcEz8lJNUiAwEbAlLrTgACBQQKmzwcxVb9R/zFKaSCm2qsvpwEQKEZA4CymFDpCoEyBPmg+L7N7ejWDQAqd6eH+zhlwNUkgqIAp9aCFN2wCxwRMnx8TivO6afY4tTZSAnMJCJxzyWqXQKUCgmalhVug24LnAsgOQaBRAVPqjRbWsAjkCPTT5xc5O9uneYH+/s7nj8+7Z5s/HgQIEBgq4ArnUCnbEWhYIF3V7D542PAIDW1qAVc7pxbVHoG2BQTOtutrdAQOCpg+P8jjxQECgucAJJsQINAJnE4CAgEFBM2ARZ95yILnzMCaJ1C5gHs4Ky+g7hMYK+A+zbFith8i0N/f6bM7h2jZhkA8AVc449XciIMKuKoZtPArDNvVzhXQHZJA4QICZ+EF0j0CpwoImqcK2j9XQPDMlbMfgfYEBM72ampEBF4LnL3/sLt4tFmB7kFgJYF7n513Lz5/6tdkruTvsARKEXAPZymV0A8CEwq4T3NCTE2dJHD5D57NP3r8msyTGO1MoHoBVzirL6EBELgSMH1+ZeGrMgVMs5dZF70iMLeAwDm3sPYJLCAgaC6A7BCTCgiek3JqjEDxAqbUiy+RDhI4LGD6/LCPV8sU6D9GKfXORymVWSO9IjClgMA5paa2CCwo0AfN5wse06EITCmQQmd6uL9zSlVtEShTwJR6mXXRKwJ7BUyf76XxQuUCptkrL6DuEzggIHAewPESgZIEBM2SqqEvcwoInnPqapvAOgKm1Ndxd1QCowT66fOLUXvZmECdAv39nc8fn3fPNn88CBCoX8AVzvpraAQNC6Srmt0HDxseoaEROCzgaudhH68SqEVA4KylUvoZSsD0eahyG+wAAcFzAJJNCBQsIHAWXBxdiycgaMaruRGPExA8x3nZmkApAu7hLKUS+hFewH2a4U8BAAME+vs7fXbnACybEChIwBXOgoqhKzEFXNWMWXejPl3A1c7TDbVAYCkBgXMpacchcENA0LwB4lsCmQKCZyac3QgsKCBwLojtUAR6gbP3H3YXjzYr0D0IEJhE4N5n592Lz5/6NZmTaGqEwPQC7uGc3lSLBPYKuE9zL40XCJwkcPkPuM0/4vyazJMY7UxgNgFXOGej1TCBKwHT51cWviKwhIBp9iWUHYPAcAGBc7iVLQmMFhA0R5PZgcCkAoLnpJwaI5AtYEo9m86OBA4LmD4/7ONVAksI9B+jlI7lo5SWEHcMArsFBM7dLp4lkC3QB83n2S3YkQCBKQVS6EwP93dOqaotAuMETKmP87I1gb0Cps/30niBQFECptmLKofOBBEQOIMU2jDnExA057PVMoE5BQTPOXW1TeC6gCn16x6+IzBKoJ8+vxi1l40JEChBoL+/8/nj8+7Z5o8HAQLzCbjCOZ+tlhsWSFc1uw8eNjxCQyMQS8DVzlj1NtrlBQTO5c0dsWIB0+cVF0/XCQwQEDwHINmEQIaAwJmBZpd4AoJmvJobcWwBwTN2/Y1+egH3cE5vqsXGBNyn2VhBDYfAAIH+/k6f3TkAyyYEBgi4wjkAySYxBVzVjFl3oyZwU8DVzpsivicwXkDgHG9mj8YFBM3GC2x4BDIFBM9MOLsR2AgInE4DAlsCZ+8/7C4ebVagexAgQGCHwL3PzrsXnz/1azJ32HiKwCEB93Ae0vFaGAH3aYYptYESOEng8h+km3+U+jWZJzHaOaCAK5wBi27IVwKmz68sfEWAwHgB0+zjzewRU0DgjFn38KMWNMOfAgAITCogeE7KqbEGBUypN1hUQzosYPr8sI9XCRAYL9B/jFLa00cpjfezR/sCAmf7NTbCVwJ90HxOhAABAjMIpNCZHu7vnAFXk9ULmFKvvoQGcEzA9PkxIa8TIDCHgGn2OVS1WauAwFlr5fT7qICgeZTIBgQILCAgeC6A7BDFC5hSL75EOpgj0E+fX+TsbB8CBAhMKNDf3/n88Xn3bPPHg0BEAVc4I1a94TGnq5rdBw8bHqGhESBQs4CrnTVXT99PERA4T9GzbzECps+LKYWOECAwQEDwHIBkk6YEBM6myhlvMIJmvJobMYGWBATPlqppLIcE3MN5SMdrRQu4T7Po8ugcAQIDBPr7O3125wAsm1Qt4Apn1eWL2XlXNWPW3agJtC7gamfrFY49PoEzdv2rGr2gWVW5dJYAgUwBwTMTzm5FCwicRZdH53qBs/cfdhePNivQPQgQIBBA4N5n592Lz5/6NZkBah1liO7hjFLpSsfpPs1KC6fbBAicJHD5D+zNP7L9msyTGO1ckIArnAUVQ1euBEyfX1n4igABAqbZnQO1CwictVewsf4Lmo0V1HAIEJhUQPCclFNjCwqYUl8Q26EOC5g+P+zjVQIECPQfo5QkfJSS86EmAYGzpmo12tc+aD5vdHyGRYAAgSkFUuhMD/d3TqmqrbkFTKnPLaz9vQKmz/fSeIEAAQKDBUyzD6ay4YoCAueK+FEPLWhGrbxxEyAwp4DgOaeutk8VMKV+qqD9Rwn00+cXo/ayMQECBAgcE+jv73z++Lx7tvnjQaAkAVc4S6pGw31JVzW7Dx42PEJDI0CAQDkCrnaWUws9eSkgcDoTZhUwfT4rr8YJECBwUEDwPMjjxQUFBM4FsSMdStCMVG1jJUCgdAHBs/QKtd8/93C2X+PFR+g+zcXJHZAAAQIHBfr7O31250EmL84o4ArnjLjRmnZVM1rFjZcAgRoFXO2ssWr191ngrL+Gq49A0Fy9BDpAgACB0QKC52gyO5wgIHCegGfXrjt7/2F38WizAt2DAAECBKoTuPfZeffi86d+TWZ1lauvw+7hrK9mRfTYfZpFlEEnCBAgcJLA5QWDzUUDvybzJEY7DxBwhXMAkk2uBEyfX1n4igABAq0JmGZvraLljEfgLKcWRfdE0Cy6PDpHgACBSQUEz0k5NbYRMKXuNDgqYPr8KJENCBAg0JRA/zFKaVA+Sqmp0q42GIFzNfryD9wHzefld1UPCRAgQGBigRQ608P9nRPDBm3OlHrQwh8atunzQzpeI0CAQEwB0+wx6z7VqAXOqSQbaEfQbKCIhkCAAIGZBQTPmYEbbd6UeqOFHTusfvr8YuyOtidAgACBUAL9/Z3PH593zzZ/PAgMEXCFc4hSw9ukq5rdBw8bHqGhESBAgMBcAq52ziXbXrsCZ3s1HTQi0+eDmGxEgAABAgMEBM8BSME3ETiDnQCCZrCCGy4BAgQWFBA8F8Su7FDu4aysYKd0132ap+jZlwABAgSOCfT3d/rszmNS8V53hTNAzV3VDFBkQyRAgEBhAq52FlaQlbsjcK5cgDkPL2jOqattAgQIEBgiIHgOUWp/G4Gz0Rqfvf+wu3i0WYHuQYAAAQIEVha499l59+Lzp35N5sp1WPPw7uFcU3+GY7tPcwZUTRIgQIDASQKXF0A2F0H8msyTGKve2RXOqst31XnT51cWviJAgACBsgVMs5ddnzl6J3DOobpgm4LmgtgORYAAAQKTCgiek3IW3Zgp9aLLc7hzps8P+3iVAAECBMoW6D9GKfXSRymVXatTeydwniq4wv590Hy+wrEdkgABAgQITCmQQmd6uL9zStXy2jKlXl5N9vbI9PleGi8QIECAQCMCptkbKeSNYQicN0BK/FbQLLEq+kSAAAECcwoInnPqLt+2KfXlzUcdsZ8+vxi1l40JECBAgEDdAv39nc8fn3fPNn886hZwhbPQ+qWrmt0HDwvtnW4RIECAAIHlBFztXM56riMJnHPJZrZr+jwTzm4ECBAg0LyA4FlviQXOQmonaBZSCN0gQIAAgeIFBM/iS3Srg+7hvEWy/BPu01ze3BEJECBAoF6B/v5On91ZTw1d4VyxVq5qrojv0AQIECDQhICrnXWUUeBcoU6C5groDkmAAAECTQsInmWXV+BcuD5n7z/sLh5tVqB7ECBAgAABApMK3PvsvHvx+VO/JnNS1Wkacw/nNI5HW3Gf5lEiGxAgQIAAgZMELi/obC7q+DWZJzHOsrMrnLOwXjVq+vzKwlcECBAgQGBJAdPsS2ofPpbAedgn+1VBM5vOjgQIECBAYFIBwXNSzqzGTKlnsR3eyfT5YR+vEiBAgACBJQX6j1FKx/RRSkvKXx1L4LyyOPmrPmg+P7klDRAgQIAAAQJTCqTQmR7u75xSdXhbptSHW+3d0vT5XhovECBAgACBIgVMsy9bFoHzBG9B8wQ8uxIgQIAAgQIEBM9limBKPdO5nz6/yNzfbgQIECBAgMD6Av39nc8fn3fPNn885hFwhXOka7qq2X3wcOReNidAgAABAgRKF3C1c74KCZwDbU2fD4SyGQECBAgQqFxA8Jy+gALnEVNB8wiQlwkQIECAQKMCgud0hXUP5wFL92kewPESAQIECBBoXKC/v9Nnd55eaFc4dxi6qrkDxVMECBAgQCCwgKudpxVf4NzyEzS3MHxJgAABAgQI3BIQPG+RDHpC4HzFdPb+w+7i0WYFugcBAgQIECBA4IDAvc/OuxefP/VrMg8Y3Xwp/D2c7tO8eUr4ngABAgQIEDgkcHmBanORyq/JPKR0/bWwVzhNn18/EXxHgAABAgQI5AmYZj/uFi5wCprHTwpbECBAgAABAuMFBM/9ZqGm1E2f7z8RvEKAAAECBAicJtB/jFJqxUcpXbcMETj7oPn8+th9R4AAAQIECBCYVCCFzvRwf+d11qan1E2fXy+27wgQIECAAIFlBUyzv/Ru9gpnf1XzYtnzytEIECBAgAABAq8F+mn26FPsTV7h9Jmar89zXxAgQIAAAQKFCES+2tnUFc40hd59sPkA90JOLN0gQIAAAQIECPQCka92fqVHqP3vPmzWPg79J0CAAAECBNoVuAyd736j3QHuGVkTVzj7+zX3jNHTBAgQIECAAIFiBCJe6az+Cme6spkK50GAAAECBAgQqEUg2pXOqgOnafRa3lb6SYAAAQIECNwUiBQ6qw6caYGQBwECBAgQIECgVoEUOi8voNU6gIH9rjZwpvs2PQgQIECAAAEC1QsEuIBWZeC0SKj6t5YBECBAgAABAlsC6TPEW35UGTgtEmr5lDQ2AgQIECAQT+Di0VnX8uxtdYGz5WLEe3sZMQECBAgQINALtHxBrbrA2XIx+hPO3wQIECBAgEBMgVYvrFUVOFstQsy3lFETIECAAAECNwVavbBWVeBstQg3TzbfEyBAgAABAnEFWrzAVk3gbBE/7lvJyAkQIECAAIF9Ai1eYKsmcLaIv+9E8zwBAgQIECAQW6C1D4OvInC2hh77LWT0BAgQIECAwDGBe3/y9WObVPV6FYHz7ttnVaHqLAECBAgQIEDgFIH0uZwtPaoInKbTWzrljIUAAQIECBAYItDSDG8VgXNIUWxDgAABAgQIEGhJoKUZ3uIDZ0vpvqU3gbEQIECAAAEC8wrceevBvAdYsPXiA2dL6X7BujoUAQIECBAgQKAYgeIDZzFSOkKAAAECBAgQWFCgpYVDxQfOli4nL3iOOhQBAgQIECDQgEArtxYWHzgbOFcMgQABAgQIECAQWqD4wNnS5eTQZ5rBEyBAgAABAmEFig+cYStj4AQIECBAgACBRgQEzkYKaRgECBAgQIAAgVIFBM5SK6NfBAgQIECAQHiBVj4e8l74SgIgMJHA99/89mVL333jWwdb/Icvf33t9b/54h+vfe8bAgROF+jfj6mlm+/J/j3ovXe6sxYIDBUQOIdK2Y7AlkD/w+xH77zX/fGbhwPm1m6XX/7w5hOvvv/lFy+D6Kdf/urymfRD0Q/EPVieJrAlsP1+TE8fe0/efA+m915633nPbaH6ksDEAne++rVvvpi4zUmbu/+TP5i0PY0RyBVIP9RSwEyPYz/QLjea6D9+GE4EqZmmBLZD5tTvx5/94uNLqz//xV83ZWYwdQrc/eS33dNPflNn57d6LXBuYfiSwC6BPmhO/UNt17GGPOeH4RAl27QqsPT7Mb3fBM9Wz6Y6xiVwLlQnVzgXgnaYWwJL/2C71YEBT6QfhqYBB0DZpHqBtd+Pgmf1p1C1AxA4FyqdwLkQtMO8Flj7B9vrjoz4op92dyVmBJpNqxH4yXf+tPvhd95bvb/eZ6uXIGQHBM6Fyi5wLgTtMJcCpfxgO6UcrsScomffkgRK/cef91hJZ0n7fRE4F6qxwLkQtMN0f/eDv1p0MdDc5H4ozi2s/TkFSv/HX7ra+b2f/9mcBNomcCnQSuD0we9O6PAC6SpKa2EzFTVNQf6/f/9fu/SD24NATQKlh81kmRYRpvdX+v+HBwECxwXu/s6D3/2L45utt8Xdd7+x3sEduXmB9MPi4x/8ZffGV3+/2bG+8+Yfdr/X3ek++fKfmh2jgbUjkP7x92//9feqGdC/2/TV+6uaclXZ0a88ftpdPD6vsu/bnXaFc1vD16EE+rAZYdCudkaocv1jrHWmIb2/XOms//wzgnkFBM55fbVeqECksLldgvSD0RT7toivSxFI52Upn3WbY5JmSoTOHDn7RBEQOKNU2jivCaQfDlEfrnZGrXy5467hns0hekLnECXbRBUQOKNWPvC407Sdx8tFRa52OhPWFmglbPaO/a+/7b/3NwECLwUETmdCKIHap+2mLpYp9qlFtTdWIJ2DLT3SbQH+IddSRY1lKgGBcypJ7RQv0NqVlKnAhc6pJLUzVqDVYJbeU+7nHHs22L51AYGz9Qob32uB1q6kvB7YBF8kG7caTACpicECrf8D0NT64FPBhkEEBM4ghY4+zFavpExZ1zQVKHROKaqtQwKt/wPQ1Pqh6nstooDAGbHqAcfc+g+3qUoqdE4lqZ1DAlH+Aej/O4fOAq9FExA4o1U84Hij/HCbqrRC51SS2tknECmI+f/PvrPA89EEBM5oFQ843kg/3KYqr9A5laR2bgpEC2DvvPFHNwl8TyCkgMAZsuxxBh3th9uUlXUP2pSa2uoFov0DML2PrFjvq+/vyAICZ+TqBxh7tB9uU5c0+QntU6vGbS9q8LJiPe45b+RXAgLnlYWvGhMQlKYpqNA5jaNWuu67b3wrJEO6yulBILqAwBn9DDB+AgMEUuiMenVqAI9NBgpEnnHw/hl4ktisWQGBs9nSGljkH25zVP/jH/zlHM1qk0AIAdPqIcpskAcEBM4DOF6qV8DVhHlq54Ph53GN0KpbXCJU2RgJ7BcQOPfbeKVigaj3is1dMivX5xbWfqsC7uNstbLGNVRA4BwqZTsCBC4FLCJyIuQI+DzKzn3QOSeOfZoREDibKaWBbAv44batMf3XQuf0plokQIBAywICZ8vVDTw201fzFz+FTvfKzu/cyhG8J+N+LFQr57BxnCYgcJ7mZ28CoQWsXA9dfoMnQIDAYAGBczCVDWsRcNVt2UpZub6st6MRIECgRgGBs8aq6TOBggSsXC+oGLpCgACBQgUEzkILo1sEahKwiKimaukrAQIElhcQOJc3d0QCTQoInU2W1aAIECAwiYDAOQmjRggQSAJWrjsPCBAgQGCXgMC5S8VzBAhkC6SV6xZuZfPZkQABAk0KCJxNltWgCKwr8KN33lu3A45OgAABAkUJCJxFlUNnCLQhkFau+7ikNmppFAQIEJhCQOCcQlEbBAjcEvBxSbdIPEGAAIGwAgJn2NIbOIH5Baxcn9/YEQgQIFCDgMBZQ5X0kUDFAlauV1w8XSdAgMBEAgLnRJCaIUBgv4CV6/ttvEKAAIEIAgJnhCobI4ECBKxcL6AIukCAAIGVBATOleAdlkA0ASvXo1XceAkQIHAlIHBeWfiKAIGZBaxcnxlY8wQIEChUQOAstDC6RaBVASvXW62scREgQGC/gMC538YrBAjMJGDl+kywmiVAgEChAgJnoYXRLQKtC1i53nqFjY8AAQJXAgLnlYWvCBBYWMDK9YXBHY4AAQIrCQicK8E7LAECXWflurOAAAECMQQEzhh1NkoCxQpYuV5saXSMAAECkwkInJNRaogAgVwBK9dz5exHgACBOgQEzjrqpJcEmhewcr35EhsgAQKBBQTOwMU3dAKlCVi5XlpF9IcAAQLTCAic0zhqhQCBiQSsXJ8IUjMECBAoSEDgLKgYukKAgJXrzgECBAi0KCBwtlhVYyJQuYCV65UXUPcJECBwQ0DgvAHiWwIEyhCwcr2MOugFAQIEphAQOKdQ1AYBArMIWLk+C6tGCRAgsLiAwLk4uQMSIDBGwMr1MVq2JUCAQJkCAmeZddErAgS2BKxc38LwJQECBCoUEDgrLJouE4gm4HeuR6u48RIg0JqAwNlaRY2HQKMCVq43WljDIkAghIDAGaLMBkmgDQEr19uoo1EQIBBPQOCMV3MjJlC1gJXrVZdP5wkQCCogcAYtvGETqFnAyvWaq6fvBAhEFBA4I1bdmAk0IGDlegNFNAQCBMIICJxhSm2gBNoSsHK9rXoaDQECbQsInG3X1+gINC1g5XrT5TU4AgQaEhA4GyqmoRCIKGDlesSqGzMBArUJCJy1VUx/CRC4JWDl+i0STxAgQKAoAYGzqHLoDAECuQJWrufK2Y8AAQLzCwic8xs7AgECCwlYub4QtMMQIEBgpIDAORLM5gQIlCtg5Xq5tdEzAgRiCwicsetv9ASaE7ByvbmSGhABAg0ICJwNFNEQCBC4LmDl+nUP3xEgQGBtAYFz7Qo4PgECswhYuT4Lq0YJECCQJSBwZrHZiQCBGgSsXK+hSvpIgEAEAYEzQpWNkUBggRQ6PQgQIEBgXQGBc11/RydAYAGBv/vBXy1wFIcgQIAAgX0CAuc+Gc8TINCMgJXrzZTSQAgQqFRA4Ky0cLpNgMA4ASvXx3nZmgABAlMKCJxTamqLAIGiBYTOosujcwQINCwgcDZcXEMjQOC2gI9Lum3iGQIECMwtIHDOLax9AgSKE7ByvbiS6BABAo0LCJyNF9jwCBDYLWDl+m4XzxIgQGAOAYFzDlVtEiBQvICV68WXSAcJEGhIQOBsqJiGQoDAOAGLiMZ52ZoAAQK5AgJnrpz9CBBoQkDobKKMBkGAQOECAmfhBdI9AgTmF7ByfX5jRyBAILaAwBm7/kZPgMArASvXnQoECBCYT0DgnM9WywQIVCZg5XplBdNdAgSqERA4qymVjhIYJ/DLL349bgdbd2nlutDpRCBAgMD0AgLn9KZaJFCEwKdf/qoTOseXwscljTezBwECBI4JCJzHhLxOoGKB7/38z4TOjPpZuZ6BZhcCBAgcEBA4D+B4iUALAj/99OMWhrH4GKxcX5zcAQkQaFhA4Gy4uIZGIAn8zRf/2L338x/DyBBIK9e//+a3M/a0CwECBAhsCwic2xq+JtCoQAqdP/vFx42Obt5h/eid9+Y9gNYJECAQQEDgDFBkQySQBP78F38tdGacClauZ6DZhQABAjcEBM4bIL4l0LJACp1Wro+vsJXr483sQYAAgW0BgXNbw9cEAghYuZ5XZCvX89zsRYAAgSQgcDoPCAQUsHI9r+hWrue52YsAAQICp3OAQEABK9fzi27ler6dPQkQiCsgcMatvZEHF7ByPf8EsHI9386eBAjEFBA4Y9bdqAlcCli5nnciWLme52YvAgTiCgiccWtv5AQuBaxczzsRrFzPc7MXAQIxBQTOmHU3agLXBKxcv8Yx+Bsr1wdT2ZAAgeACAmfwE8DwCfQCVq73EuP+tnJ9nJetCRCIKSBwxqy7URO4JWDl+i2SwU9YuT6YyoYECAQVEDiDFt6wCewSsHJ9l8qw56xcH+ZkKwIEYgoInDHrbtQE9gpYub6X5uALVq4f5PEiAQLBBQTO4CeA4RPYJWDl+i6V489ZuX7cyBYECMQUEDhj1t2oCRwVsHL9KNHODaxc38niSQIEggsInMFPAMMncEjAyvVDOvtfs3J9v41XCBCIKSBwxqy7URMYJGDl+iCmnRtZub6TxZMECAQVEDiDFt6wCQwVsHJ9qNTt7axcv23iGQIEYgoInDHrbtQERglYuT6K6/XGVq6/pvAFAQLBBQTO4CeA4RMYKiB0DpW6vp2V69c9fEeAQEwBgTNm3Y2aQJaAj0vKYuusXM9zsxcBAu0ICJzt1NJICCwikD4uyWO8gJXr483sQYBAOwICZzu1NBICiwm89/MfL3aslg5k5XpL1TQWAgTGCAicY7RsS4DApYCV6/kngpXr+Xb2JECgXgGBs97a6TmBVQUsIsrjt3I9z81eBAjULSBw1l0/vSewqoDQmcdv5Xqem70IEKhXQOCst3Z6TqAIASvX88pg5Xqem70IEKhTQOCss256TaAoASvX88ph5Xqem70IEKhPQOCsr2Z6TKBIASvX88pi5Xqem70IEKhLQOCsq156S6BYASvX80tj5Xq+nT0JEKhDQOCso056SaAKAYuI8spk5Xqem70IEKhHQOCsp1Z6SqAKAaEzr0xWrue52YsAgToEBM466qSXBKoSsHI9r1xWrue52YsAgfIFBM7ya6SHBKoUSCvXf/nFr6vs+5qdtnJ9TX3HJkBgLgGBcy5Z7RIg0P30048pZAhYuZ6BZhcCBIoWEDiLLo/OEahbIK1c93FJeTW0cj3PzV4ECJQpIHCWWRe9ItCMgI9Lyiullet5bvYiQKBMAYGzzLroFYGmBKxczyunlet5bvYiQKA8AYGzvJroEYEmBaxczyurlet5bvYiQKAsAYGzrHroDYGmBaxczyuv0JnnZi8CBMoREDjLqYWeEAghYOV6Xpl9XFKem70IEChDQOAsow56QSCMgJXr+aVOH5fkQYAAgRoFBM4aq6bPBCoXsHI9v4B/94O/yt/ZngQIEFhJQOBcCd5hCUQXsHI97wywcj3PzV4ECKwrIHCu6+/oBEILWLmeV36LiPLc7EWAwHoCAud69o5MgMBGwMr1vNNA6MxzsxcBAusICJzruDsqAQJbAlaub2GM+NLK9RFYNiVAYFUBgXNVfgcnQCAJWLmefx5YuZ5vZ08CBJYTEDiXs3YkAgQOCFi5fgDnyEtWrh8B8jIBAqsLCJyrl0AHCBDoBaxc7yXG/W3l+jgvWxMgsLyAwLm8uSMSIHBAwMr1AzgHXrKI6ACOlwgQWF1A4Fy9BDpAgMBNASvXb4oM+17oHOZkKwIElhcQOJc3d0QCBAYIWLk+AGnHJlau70DxFAECqwsInKuXQAcIENglYOX6LpVhz6WV699/89vDNrYVAQIEFhAQOBdAdggCBPIErFzPc0t7/eid9/J3ticBAgQmFhA4JwbVHAEC0wpYuZ7nmVau+7ikPDt7ESAwvYDAOb2pFgkQmFjAyvU8UB+XlOdmLwIEphcQOKc31SIBAjMIWLmeh2rlep6bvQgQmFZA4JzWU2sECMwoYOV6Hq6V63lu9iJAYDoBgXM6Sy0RIDCzgJXr+cBWrufb2ZMAgdMFBM7TDbVAgMCCAlau52NbuZ5vZ08CBE4TEDhP87M3AQIrCFi5nodu5Xqem70IEDhdQOA83VALBAisIGDleh66let5bvYiQOA0AYHzND97EyCwooCV63n4Vq7nudmLAIF8AYEz386eBAgUIGDlel4RrFzPc7MXAQJ5AgJnnpu9CBAoRMDK9fxCWLmeb2dPAgTGCQic47xsTYBAgQJWrucXxcr1fDt7EiAwXEDgHG5lSwIEChawcj2vOFau57nZiwCBcQIC5zgvWxMgULCAlet5xbFyPc/NXgQIDBcQOIdb2ZIAgQoErFzPK5KV63lu9iJAYJiAwDnMyVYECFQkYOV6XrGsXM9zsxcBAscFBM7jRrYgQKAyASvX8wtm5Xq+nT0JENgvIHDut/EKAQIVC1i5nl88K9fz7exJgMBuAYFzt4tnCRBoQMDK9bwiWrme52YvAgT2Cwic+228QoBAAwJWrucV0cr1PDd7ESCwW0Dg3O3iWQIEGhKwcj2vmFau57nZiwCB2wIC520TzxAg0KBACp0e4wWsXB9vZg8CBG4LCJy3TTxDgECjAu/9/MeNjmzeYVm5Pq+v1glEEBA4I1TZGAkQuBSwcj3/RLByPd/OngQIdJ3A6SwgQCCUgJXreeW2cj3PzV4ECLwUEDidCQQIhBMQOvNKbuV6npu9CBBwhdM5QIBAUAEfl5RXeCvX89zsRSC6gCuc0c8A4ycQWMDK9bziW7me52YvApEFBM7I1Td2AgQ6K9fzTgIr1/Pc7EUgqoDAGbXyxk2AwKWAlev5J4KV6/l29iQQTUDgjFZx4yVA4JaARUS3SAY9YeX6ICYbESCwERA4nQYECBDYCAideaeBlet5bvYiEE1A4IxWceMlQGCvgJXre2kOvmDl+kEeLxIgsBEQOJ0GBAgQ2BKwcn0LY8SXVq6PwLIpgYACAmfAohsyAQKHBaxcP+yz71Ur1/fJeJ4AAYHTOUCAAIEbAlau3wAZ8a2V6yOwbEogkIDAGajYhkqAwHABi4iGW21vaeX6toavCRDoBQTOXsLfBAgQuCEgdN4AGfitlesDoWxGIJCAwBmo2IZKgMB4ASvXx5ulPaxcz3OzF4FWBQTOVitrXAQITCaQVq7/8otfT9ZelIasXI9SaeMkcFxA4DxuZAsCBAh0P/30YwoZAlauZ6DZhUCDAgJng0U1JAIEphdIK9d9XFKeawqdHgQIxBYQOGPX3+gJEBgh4OOSRmDZlAABAlsCAucWhi8JECBwTMDK9WNCXidAgMBtAYHztolnCBAgcFDAyvWDPF4kQIDALQGB8xaJJwgQIHBcwMr140a2IECAQC8gcPYS/iZAgMBIASvXR4LZnACBsAICZ9jSGzgBAqcKWLl+qqD9CRCIIiBwRqm0cRIgMIuAleuzsGqUAIHGBATOxgpqOAQILC9g5fry5o5IgEBdAgJnXfXSWwIEChWwcr3QwugWAQJFCAicRZRBJwgQaEHAyvUWqmgMBAjMISBwzqGqTQIEwgpYuR629AZOgMABAYHzAI6XCBAgMFbAyvWxYrYnQCCCgMAZocrGSIDAogJWri/K7WAECFQgIHBWUCRdJECgPgEr1+urmR4TIDCfgMA5n62WCRAILmDlevATwPAJEHgtIHC+pvAFAQIEphewcn16Uy0SIFCfgMBZX830mACBygSsXK+sYLpLgMDkAgLn5KQaJECAwHUBK9eve/iOAIF4AgJnvJobMQECKwhYub4CukMSIFCMgMBZTCl0hACB1gWsXG+9wsZHgMA+AYFzn4znCRAgMIOAleszoGqSAIHiBQTO4kukgwQItCZg5XprFTUeAgSOCQicx4S8ToAAgRkErFyfAVWTBAgUKyBwFlsaHSNAoGUBK9dbrq6xESBwU0DgvCniewIECCwkYOX6QtAOQ4DA6gIC5+ol0AECBCILWLkeufrGTiCOgMAZp9ZGSoBAoQJWrhdaGN0iQGAyAYFzMkoNESBAIF/AyvV8O3sSIFC+gMBZfo30kACBIAJWrgcptGESCCggcAYsuiETIFCmgJXrZdZFrwgQOF1A4DzdUAsECBCYTMDK9ckoNUSAQEECAmdBxdAVAgQIJAEr150HBAi0JiBwtlZR4yFAoAkBK9ebKKNBECDwSkDgdCoQIECgUAEr1wstjG4RIDBaQOAcTWYHAgQILCdg5fpy1o5EgMB8AgLnfLZaJkCAwMkCVq6fTKgBAgQKEBA4CyiCLhAgQOCQgJXrh3S8RoBADQICZw1V0kcCBMILWLke/hQAQKBqAYGz6vLpPAECkQSEzkjVNlYCbQkInG3V02gIEGhcwMclNV5gwyPQqIDA2WhhDYsAgXYF0scleRAgQKAmAYGzpmrpKwECBF4JvPfzH7MgQIBANQICZzWl0lECBAhcCVi5fmXhKwIEyhcQOMuvkR4SIEBgp4BFRDtZPEmAQIECAmeBRdElAgQIDBUQOodK2Y4AgTUFBM419R2bAAECEwhYuT4BoiYIEJhVQOCclVfjBAgQWEbAyvVlnB2FAIE8AYEzz81eBAgQKE7AyvXiSqJDBAi8EhA4nQoECBBoRMDK9UYKaRgEGhQQOBssqiERIBBXwCKiuLU3cgIlCwicJVdH3wgQIJAhIHRmoNmFAIFZBQTOWXk1ToAAgXUErFxfx91RCRDYLSBw7nbxLAECBKoXSCvXf/nFr6sfhwEQIFC/gMBZfw2NgAABAnsFfvrpx3tf8wIBAgSWEhA4l5J2HAIECKwgkFau+7ikFeAdkgCBawIC5zUO3xAgQKA9AR+X1F5NjYhAbQICZ20V018CBAhkCFi5noFmFwIEJhMQOCej1BABAgTKFrByvez66B2BlgUEzpara2wECBC4IWDl+g0Q3xIgsIiAwLkIs4MQIECgHAEr18uphZ4QiCIgcEaptHESIEDglYCV604FAgSWFhA4lxZ3PAIECBQgYOV6AUXQBQKBBATOQMWOMtT0g9SDAIHjAlauHzeyBQEC0wgInNM4aoVAcQL/8KVfaVhcUQrskJXryxXFe3I5a0cqT0DgLK8mekSAAIFFBaxcX5TbwQiEFBA4Q5a9/UH/8gtX99xa0P55PuUIrVyfUnN3W96Tu108G0NA4IxRZ6MkQIDAQYEUhvzO9YNEJ73oH8En8dm5AQGBs4EiGsJtgehXa372i49vo3iGwBGBFDqdO0eQMl/+9MtfZe5pNwJtCAicbdTRKAgQIDCJgJXrkzBqhACBGwIC5w0Q37YhEP1eKath2ziP1xqFlevTyydTDwKRBQTOyNVvfOyR75mKHrgbP7UXGZ6V69Mxu01hOkst1SsgcNZbOz0/IhD1Pk4/3I6cGF4eLBD1PTQYyIYECAwWEDgHU9mwNoGoV/lMp9d2ppbb3/QesnL99PqYTj/dUAv1Cwic9dfQCA4IRLval24jiBq0D5wGXjpBIJ1P0d5HJ3Dd2pXdLRJPBBUQOIMWPsqwo11Z8NErUc7sZceZ3keCU555tP8H5SnZK4KAwBmhysHHGGnxkB9uwU/2GYcvdI7HFdLHm9mjXQGBs93aGtkrgbTaNsLDD7cIVV53jELnOH//ABznZeu2BQTOtutrdK8EWg9jaXx+uDndlxAQOocpt/7/nGEKtiJwJSBwXln4qmGB9EOy5al1K9MbPnkLHJrQebgo/gF42MerMQUEzph1DznqVj9TMP1wszI95Cm96qCFzv38ycaDAIHrAnd/58Hv/sX1p8r67u673yirQ3pTrcD/+uf/3f1ed6d7580/rHYMNzvuSspNEd8vKfDJl//U/fcv/1v38F/8q+6Nr/7+kocu9ljpPZlcPAhMJfCVx0+7i8fnUzW3WjsC52r0DryGQPpB0EroTLcIvP/Jf1yD0TEJvBZI/5D7L//zb5t5X70eWMYX/gGYgWaXowKtBE5T6kdLbYPWBFq5n7PVWwRaO9+ijCf6FLuwGeVMN85cAYEzV85+VQukj0qqeRFR+nWD7tus+hRssvMpdP7L//xvwn1IvLDZ5OlsUBMLCJwTg2quHoFaQ6ewWc85FrWnka52CptRz3LjHisgcI4Vs31TAil0ph8YNTzSFVlhs4ZK6WMSiHC1U9h0rhMYLmDR0HArWzYqUMNCohQ2UzhOCzQ8CNQk0K9k/7///H+a+YSI9H78D3//n7qf/Y+/rakU+lqpQCuLhu5V6q/bBCYVSFdj0uOH33nv8u+S/uMqSknV0JccgXS/8fY9xyW+z4aOq//H39DtbUeAwEuBO1/92jdflIxx/yd/UHL39K1BgZ9850+LCJ7pB1taib79g7pBbkMKKJDeY+lRU/D0fgx4ohYy5Luf/LZ7+slvCulNfjcEznw7ezYusFbw9IOt8RPL8K4JpPfZO2/8UffHb37r2vMlfWOWoaRqxOuLwLlQzV3hXAjaYXYKfP/Nb3fffeNbi1yJETR3lsCTQQT691pJ4VPQDHLyFT5MgXOhAgmcC0E7zFGBOa7EpJCZHqbOj/LbIJjAWtPu/uEX7ESrYLgC50JFEjgXgnaYUQL9D8OcqzH9D7R0QPdnjmK3cWCB/j2XCHLed/vo0vvx0y9/1f3Dl7/2ftyH5PlVBQTOhfgFzoWgHeZkgTQlmB5pCr5/pB9i/UO47CX8TWA6gf59t93i9ntw+/n0tffkTRHfly4gcC5UIYFzIWiHIUCAAAECBIoTaCVw+k1DxZ1aOkSAAAECBAgQaEtA4GyrnkZDgAABAgQINCTw/PF5E6MROJsoo0EQIECAAAECBMoVKD5w3vusjWRf7imgZwQIECBAgACBeQWKD5zzDl/rBAgQIECAAAECcwsInHMLa58AAQIECBAgkCnwzD2cmXIjd3vx+dORe9icAAECBAgQIECgJIHir3C2sjqrpKLrCwECBAgQIFC+QPoMzlYexQfOVi4lt3LCGAcBAgQIECBAYKxA8YEzDchK9bFltT0BAgQIECBQu0BLs7xVBM7aTxj9J0CAAAECBAiMFWhplreKwHnx9+3cwzD2ZLM9AQIECBAgEE+gpfs3U/WqCJwp4ZtWj/dmM2ICBAgQIECgDYEqAmcb1EZBgAABAgQIEBgm8PST3wzbsJKtqgmcptUrOaN0kwABAgQIEDhJoLXp9IRRTeA0rX7SuWtnAgQIECBAoBKB1q5uJvZqAmfqrKucScGDAAECBAgQaFWgxaubqVZVBU5XOVt9exkXAQIECBAgkARavLqZxlVV4EwdPv/oSfrLgwABAgQIECDQlECrVzdTkaoLnJdn1odCZ1PvMIMhQIAAAQLBBVLYbPXqZiptlYHT1Hrwd6XhEyBAgACBxgRaDpupVFUGztRxU+tJwYMAAQIECBCoXaDlqfS+NtUGzssBmFrv6+hvAgQIECBAoEKB1qfS+5JUHTjT1HondPa19DcBAgQIECBQkUCUsJlKUnXgTANIoTPCpeg0Vg8CBAgQIECgDYFIYTNVrPrAmQaRbrQVOpOEBwECBAgQIFC6QLSwmerRROBMA7lc3WV6PVF4ECBAgAABAoUKRAybqRR3vvq1b74otCbZ3Tp7/2F38egse387EiBAgAABAgSmFogaNpNjk4EzDezBu9/onr/79fSlBwECBAgQIEBgNYF7n513F3//28t1J6t1YuUDNxs4k+v9t8+6e3/ydVc7Vz7JHJ4AAQIECEQViHxVc7vmTQfOfqCudvYS/iZAgAABAgSWEHBV87pyiMDZD1nw7CX8TYAAAQIECMwhIGjuVg0VOBNBmma/u/nj/s7dJ4RnCRAgQIAAgUyBzaflXP5SmszdW97tXsuD2zW2yxNh82HxDzYvCp27hDxHgAABAgQIjBFwn+ZxrXBXOG+SmGa/KeJ7AgQIECBAYIiA6fMhSi+3CR84eyrBs5fwNwECBAgQIHBIQNA8pLP7tXBT6rsZXv6mojTNnh6m2l86+C8BAgQIECBwXSBNn59vfqW2xzgBgXPL6/LXY26+d3/nFoovCRAgQIAAgc59mqedBKbUD/iZZj+A4yUCBAgQIBBAwPT5NEUWOAc4Cp4DkGxCgAABAgQaEhA0py2mKfUBnmmqPU2z33nrgV+TOcDLJgQIECBAoGYB92lOXz1XOEeauto5EszmBAgQIECgEoF0VfP8oyeV9LaubgqcmfUSPDPh7EaAAAECBAoTMH0+f0EEzhONBc8TAe1OgAABAgRWEhA0l4N3D+eJ1v39nT6780RIuxMgQIAAgQUF3Ke5IPbmUK5wTujtaueEmJoiQIAAAQIzCLiqOQPqgCYFzgFIYzcRPMeK2Z4AAQIECMwrIGjO63usdYHzmFDm6/ffPuvubv6Yas8EtBsBAgQIEJhK4MMn3bPH51O1pp0MAfdwZqAN2eXyxN6c3H5N5hAt2xAgQIAAgekF/DrK6U1zW3SFM1du5H6m2UeC2ZwAAQIECGQKmD7PhJtxN4FzRtxdTQueu1Q8R4AAAQIEThcQNE83nKsFU+pzye5pt/8YpfSy+zv3IHmaAAECBAiMFPAxRyPBFt5c4FwYPB0uhc70cH/nJYP/ECBAgACBbAH3aWbTLbqjKfVFuXcfzDT7bhfPEiBAgACBfQKmz/fJlPm8wFlQXQTPgoqhKwQIECBQpICgWWRZjnbKlPpRouU26O/vvPPWg+7i0dlyB3YkAgQIECBQgYD7NCso0p4uusK5B2btp13tXLsCjk+AAAECpQikq5rnHz0ppTv6kSEgcGagLbmL4LmktmMRIECAQEkCps9LqsZpfRE4T/NbbG/BczFqByJAgACBlQUEzZULMMPh3cM5A+ocTfb3d/rszjl0tUmAAAECpQi4T7OUSkzbD1c4p/VcpDVXOxdhdhACBAgQWFDAVc0FsVc4lMC5AvpUhxQ8p5LUDgECBAisJSBoriW/7HEFzmW9Jz/a/bfPurubP6baJ6fVIAECBAjMLfDhk+7Z4/O5j6L9AgTcw1lAEU7pwuUbdfNm9WsyT1G0LwECBAgsKeDXUS6pXcaxXOEsow6T9cI0+2SUGiJAgACBiQVMn08MWlFzAmdFxRrTVcFzjJZtCRAgQGBOAUFzTt062jalXkedRvey/xiltKP7O0fz2YEAAQIEJhLwMUcTQVbejMBZeQEPdT+FzvRwf+chJa8RIECAwBwC7tOcQ7XeNk2p11u70T03zT6azA4ECBAgMFLA9PlIsCCbC5xBCr09TMFzW8PXBAgQIDCFgKA5hWK7bZhSb7e2e0fW3995560H3cWjs73beYEAAQIECAwRcJ/mEKXY27jCGbv+naudwU8AwydAgMAJAumq5vlHT05owa5RBATOKJU+Mk7B8wiQlwkQIEDgtYDp89cUvhgoIHAOhIqymeAZpdLGSYAAgfECguZ4M3u8FHAPpzPhmkB/f6fP7rzG4hsCBAiEF3CfZvhT4CQAVzhP4mt7Z1c7266v0REgQGCIgKuaQ5Rsc0xA4Dwm5HULi5wDBAgQCCggaAYs+oxDFjhnxG2p6ftvn3V3N39MtbdUVWMhQIDAHoEPn3TPHp/vedHTBMYLuIdzvFnIPS7/x7P5n49fkxmy/AZNgEAQAb+OMkihVximK5wroLdwSPd3tlBFYyBAgMBLAdPnzoS5BQTOuYUbb1/wbLzAhkeAQNMCgmbT5S1qcKbUiypHfZ3pP0Yp9dz9nfXVT48JEIgr4GOO4tZ+jZELnGuoN3bMFDrTw/2djRXWcAgQaFLAfZpNlrX4QZlSL75E9XXQNHt9NdNjAgTaFzB93n6NSx6hwFlydSrvm+BZeQF1nwCBJgQEzSbKWP0gTKlXX8JyB9Df33nnrQfdxaOzcjuqZwQIEGhUwH2ajRa2wmG5wllh0WrssqudNVZNnwkQqFUgXdU8/+hJrd3X7wYFBM4Gi1rykATPkqujbwQI1C5g+rz2Crbbf4Gz3doWPTLBs+jy6BwBApUJCJqVFSxgd93DGbDoJQy5v7/TZ3eWUA19IECgZgH3adZcvTh9d4UzTq2LHamrncWWRscIEChYwFXNgouja7cEBM5bJJ5YS0DwXEvecQkQqElA0KypWvraCwicvYS/ixC4//ZZd3fzx1R7EeXQCQIEShP48En37PF5ab3SHwJHBdzDeZTIBksKXP6PdPM/U78mc0l1xyJAoHQBv46y9Arp3zEBVziPCXl9VQHT7KvyOzgBAisLmD5fuQAOP5mAwDkZpYbmFBA859TVNgECpQkImqVVRH9OFTClfqqg/RcR6D9GKR3M/Z2LkDsIAQIrCfiYo5XgHXZWAYFzVl6NTymQQmd6uL9zSlVtESBQioD7NEuphH7MIWBKfQ5VbS4iYJp9EWYHIUBgZgHT5zMDa74IAYGziDLoxCkCgucpevYlQGAtAUFzLXnHXUPAlPoa6o45qUB/f+edtx50F4/OJm1bYwQIEJhDwH2ac6hqs2QBVzhLro6+jRZwtXM0mR0IEFhQIF3VPP/oyYJHdCgCZQgInGXUQS8mFhA8JwbVHAECJwmYPj+Jz84NCAicDRTREPYLCJ77bbxCgMD8AoLm/MaOUIeAezjrqJNeZgr093f67M5MQLsRIJAt4D7NbDo7NijgCmeDRTWk3QKudu528SwBAtMKuKo5rafW2hAQONuoo1GMEBA8R2DZlACBwQKC5mAqGwYUEDgDFt2Qu+7+22fd3c0fU+3OBgIEJhH48En37PH5JE1phECLAu7hbLGqxnRU4PIHw+aHg1+TeZTKBgQIHBDw6ygP4HiJwJaAK5xbGL6MK2CaPW7tjZxAjoDp8xw1+0QWEDgjV9/YbwkInrdIPEGAwJaAoLmF4UsCIwRMqY/Asmn7Av3HKKWRur+z/XobIYExAj7maIyWbQlcFxA4r3v4jkCXQmd6uL/TyUCAQBJwn6bzgMDpAqbUTzfUQuMCptkbL7DhEdgjYPp8D4ynCWQICJwZaHaJKSB4xqy7UccTEDTj1dyI5xcwpT6/sSM0ItDf33nnrQfdxaOzRkZlGzTvhQAACBZJREFUGAQIbAu4T3Nbw9cEphNwhXM6Sy0FEnC1M1CxDTWEQLqqef7RkxBjNUgCawgInGuoO2YzAoJnM6U0kKACps+DFt6wFxcQOBcnd8AWBQTPFqtqTC0LCJotV9fYShRwD2eJVdGn6gT6+zt9dmd1pdPhgALu0wxYdENeXcAVztVLoAOtCbja2VpFjacVAVc1W6mkcdQoIHDWWDV9rkJA8KyiTDoZQEDQDFBkQyxeQOAsvkQ6WLPA/bfPurubP6baa66ivlct8OGT7tnj86qHoPMEWhBwD2cLVTSGYgUuf9Btftj5NZnFlkjHGhXw6ygbLaxhVSvgCme1pdPxGgVMs9dYNX2uScD0eU3V0tdIAgJnpGobazECgmcxpdCRRgQEzUYKaRjNCphSb7a0BlayQP8xSqmP7u8suVL6VoOAjzmqoUr6GF1A4Ix+Bhj/agIpdKaH+ztXK4EDVy7gPs3KC6j7oQRMqYcqt8GWLGCaveTq6FtJAqbPS6qGvhAYJiBwDnOyFYHFBATPxagdqDIBQbOygukugS0BU+pbGL4kUIJAf3/nnbcedBePzkrokj4QWF3AfZqrl0AHCJwk4ArnSXx2JjCvgKud8/pqvXyBdFXz/KMn5XdUDwkQOCggcB7k8SKBMgQEzzLqoBfLCZg+X87akQgsISBwLqHsGAQmEhA8J4LUTLECgmaxpdExAicJuIfzJD47E1hWoL+/02d3LuvuaMsIuE9zGWdHIbCGgCuca6g7JoEJBFztnABRE0UIuKpZRBl0gsCsAgLnrLwaJzC/gOA5v7EjzCMgaM7jqlUCJQoInCVWRZ8IjBS4//ZZd3fzx1T7SDibryfw4ZPu2ePz9Y7vyAQILCrgHs5FuR2MwDwClz+4Nz+8/ZrMeXy1Op2AX0c5naWWCNQk4ApnTdXSVwIDBUyzD4Sy2WICps8Xo3YgAkUKCJxFlkWnCEwjIHhO46iVfAFBM9/OngRaEjCl3lI1jYXADYH+Y5TS0+7vvIHj29kFfMzR7MQOQKAaAYGzmlLpKIE8gRQ608P9nXl+9hov4D7N8Wb2INC6gCn11itsfARuCJhmvwHi28kETJ9PRqkhAs0JCJzNldSACAwTEDyHOdnquICgedzIFgSiC5hSj34GGH9Ygf7+zjtvPeguHp2FdTDw0wTcp3man70JRBFwhTNKpY2TwAEBVzsP4Hhpp0C6qnn+0ZOdr3mSAAECNwUEzpsivicQWEDwDFz8gUM3fT4QymYECFwTEDivcfiGAIEkIHg6D24KCJo3RXxPgMAYAfdwjtGyLYEgAv39nT67M0jBjwzTfZpHgLxMgMBRAVc4jxLZgEBsAVc749bfVc24tTdyAlMLCJxTi2qPQKMCgmejhd0xLEFzB4qnCBA4SUDgPInPzgRiCdx/+6y7u/ljqr3hun/4pHv2+LzhARoaAQJrCLiHcw11xyRQqcBlENmEEb8ms9ICHui2X0d5AMdLBAicLOAK58mEGiAQV8A0e/21N31efw2NgEANAgJnDVXSRwKFCwiehRdoR/cEzR0oniJAYDYBU+qz0WqYQByB/mOU0ojd31l+3X3MUfk10kMCrQkInK1V1HgIrCSQQmd6uL9zpQIMOKz7NAcg2YQAgVkETKnPwqpRAgRMs5dzDpg+L6cWekIgqoDAGbXyxk1gIQHBcyHoHYcRNHegeIoAgVUETKmvwu6gBOII9Pd33nnrQXfx6CzOwFceqfs0Vy6AwxMgcE3AFc5rHL4hQGBOAVc759R92Xa6qnn+0ZP5D+QIBAgQGCEgcI7AsikBAtMICJ7TOG63Yvp8W8PXBAiUJiBwllYR/SEQSEDwPL3YgubphlogQGB+Afdwzm/sCAQI7BHo7+/02Z17gI487T7NI0BeJkCgGAFXOIsphY4QiC3gaufw+ruqOdzKlgQIlCEgcJZRB70gQOCVgOC5/1QQNPfbeIUAgbIFBM6y66N3BEIK3H/7rLu7+WOqfav8Hz7pnj0+33rClwQIEKhHwD2c9dRKTwmEEbgMVptw5ddkdp1fRxnmtDdQAk0LuMLZdHkNjkAbAhGn2U2ft3HuGgUBAi8FBE5nAgEC1QhECJ6CZjWno44SIDBCwJT6CCybEiCwrkD/MUqpFy3e3+ljjtY9vxydAIH5BATO+Wy1TIDADAIpdKZHS/d3uk9zhhNFkwQIFCVgSr2ocugMAQJjBWqeZjd9PrbatidAoFYBgbPWyuk3AQLXBGoKnoLmtdL5hgCBAAKm1AMU2RAJRBDo7++889aD7uLRWbFDdp9msaXRMQIEZhRwhXNGXE0TILCOQIlXO9NVzfOPnqwD4qgECBBYWUDgXLkADk+AwHwCJQRP0+fz1VfLBAjUIyBw1lMrPSVAIFNgjeApaGYWy24ECDQpIHA2WVaDIkBgl0AKnnPf4ylo7pL3HAEC0QUEzuhngPETCChw/+2z7u7mz1ThU8gMeBIZMgECowQEzlFcNiZAoEWBPoCmsaUQmh43V7qnUNk/Xnz+tHv++OX3z1793b/mbwIECBC4LSBw3jbxDAECBAgQIECAwIQCX5mwLU0RIECAAAECBAgQuCUgcN4i8QQBAgQIECBAgMCUAgLnlJraIkCAAAECBAgQuCUgcN4i8QQBAgQIECBAgMCUAgLnlJraIkCAAAECBAgQuCUgcN4i8QQBAgQIECBAgMCUAgLnlJraIkCAAAECBAgQuCUgcN4i8QQBAgQIECBAgMCUAgLnlJraIkCAAAECBAgQuCXw/wGDhEMo13cEzAAAAABJRU5ErkJggg==;" vertex="1" parent="1">
          <mxGeometry x="155.17000000000002" y="260" width="29.65" height="30" as="geometry" />
        </mxCell>
        <mxCell id="EV37W_cAb1lumJegeBz7-14" value="" style="shape=image;verticalLabelPosition=bottom;labelBackgroundColor=default;verticalAlign=top;aspect=fixed;imageAspect=0;image=data:image/png,iVBORw0KGgoAAAANSUhEUgAAApwAAAKkCAYAAACtYu9lAAAMPWlDQ1BJQ0MgUHJvZmlsZQAASImVVwdYU8kWnluSkJDQAqFICb0JAtKREkILICBVsBGSAKHEEAgqdmRRwbWLKNjQVRFF1wLIWhBRbItg74sFFGVdLNjLmxTQdV/53uSbO3/+OfOfM+fOvXcGAPUWrlicg2oAkCsqkMSGBjLHJ6cwSb2ADH+qQBNocHn5YlZMTCSAZaj9e3lzDSCy9rKDTOuf/f+1aPIF+TwAkBiI0/j5vFyIDwKAV/PEkgIAiDLefFqBWIZhBdoSGCDEi2Q4Q4GrZThNgffJbeJj2RC3AaBC5XIlGQCodUKeWcjLgBpqAxA7ifhCEQDqTIj9cnOn8iFOhdgG2oghlul7pn2nk/E3zbRhTS43Yxgr5iIvKkHCfHEOd8b/mY7/XXJzpEM+rGClZkrCYmVzhnm7kT01QoapEPeL0qKiIdaC+J2QL7eHGKVkSsMSFPaoIS+fDXMGGBA78blBERAbQhwiyomKVPJp6cIQDsRwhaDThQWceIj1IF4kyA+OU9pslkyNVfpCG9IlbJaSP8OVyP3KfN2TZiewlPovMwUcpT6mVpQZnwQxBWKLQmFiFMRqEDvmZ8dFKG3GFGWyo4ZsJNJYWfwWEMcKRKGBCn2sMF0SEqu0L8vNH5ovtjlTyIlS4v0FmfFhivxgbTyuPH44F6xTIGIlDOkI8sdHDs2FLwgKVswdeyIQJcQpdd6JCwJjFWNxijgnRmmPmwlyQmW8GcSu+YVxyrF4YgFckAp9PF1cEBOviBMvyuKGxyjiwZeDSMAGQYAJpLCmgakgCwg7+hv74T9FTwjgAgnIAALgoGSGRiTJe0TwGgeKwJ8QCUD+8LhAea8AFEL+8zCruDqAdHlvoXxENuiFOBdEgBz4XyofJRr2lggeQUb4D+9cWHkw3hxYZf3/nh9ivzEsyEQqGemQR6b6kCUxmBhEDCOGEG1xA9wP98Ej4TUAVhfcE/camsc3e0IvoYvwgHCV0E24OUVYLPkhyrGgG+qHKHOR9n0ucCuo6YYH4r5QHSrjDNwAOOCu0A8L94ee3SDLVsYtywrzB+2/zeC7u6G0IzuRUbIuOYBs8+NINTs1t2EVWa6/z48i1rThfLOHe370z/4u+3zYRvxoiS3CDmDt2AnsLHYEawRM7DjWhF3Ajsrw8Op6JF9dQ95i5fFkQx3hP/wN3VlZJvOd6pz6nD4p+goE02XvaMCeKp4hEWZkFjBZ8IsgYHJEPMeRTBcnFxcAZN8XxevrFUP+3UAY575xeS0AeJVBMuMbxzUH4HAvAPQ33zjzl/CxWQ7A0U6eVFKo4HDZhQDfEurwSdMHxsAc2MD5uAB34AMCQDAIB9EgHiSDyTD6TLjOJWAamAXmg1JQDpaDNWA92AS2gp1gD9gPGsERcAKcBudBJ7gKbsPV0wOegQHwBnxEEISE0BA6oo+YIJaIPeKCeCJ+SDASicQiyUgqkoGIECkyC1mAlCMrkfXIFqQW+RU5jJxAziJdyE3kPtKHvEQ+oBhKRbVRI9QKHYV6oiw0Ao1HJ6EZaB5ahJagS9FKtAbdjTagJ9Dz6FW0G32GDmIAU8UYmCnmgHlibCwaS8HSMQk2ByvDKrAarB5rhvf5MtaN9WPvcSJOx5m4A1zBYXgCzsPz8Dn4Enw9vhNvwNvwy/h9fAD/QqARDAn2BG8ChzCekEGYRiglVBC2Ew4RTsFnqYfwhkgkMojWRA/4LCYTs4gziUuIG4h7iS3ELuJD4iCJRNIn2ZN8SdEkLqmAVEpaR9pNOk66ROohvVNRVTFRcVEJUUlREakUq1So7FI5pnJJ5bHKR7IG2ZLsTY4m88kzyMvI28jN5IvkHvJHiibFmuJLiadkUeZTKin1lFOUO5RXqqqqZqpequNUharzVCtV96meUb2v+p6qRbWjsqkTqVLqUuoOagv1JvUVjUazogXQUmgFtKW0WtpJ2j3aOzW6mqMaR42vNletSq1B7ZLac3WyuqU6S32yepF6hfoB9Yvq/RpkDSsNtgZXY45GlcZhjesag5p0TWfNaM1czSWauzTPaj7RImlZaQVr8bVKtLZqndR6SMfo5nQ2nUdfQN9GP0Xv0SZqW2tztLO0y7X3aHdoD+ho6bjqJOpM16nSOarTzcAYVgwOI4exjLGfcY3xQddIl6Ur0F2sW697Sfet3gi9AD2BXpneXr2reh/0mfrB+tn6K/Qb9e8a4AZ2BuMMphlsNDhl0D9Ce4TPCN6IshH7R9wyRA3tDGMNZxpuNbxgOGhkbBRqJDZaZ3TSqN+YYRxgnGW82viYcZ8J3cTPRGiy2uS4yVOmDpPFzGFWMtuYA6aGpmGmUtMtph2mH82szRLMis32mt01p5h7mqebrzZvNR+wMLEYazHLos7iliXZ0tMy03KtZbvlWytrqySrhVaNVk+s9aw51kXWddZ3bGg2/jZ5NjU2V2yJtp622bYbbDvtUDs3u0y7KruL9qi9u73QfoN910jCSK+RopE1I687UB1YDoUOdQ73HRmOkY7Fjo2Oz0dZjEoZtWJU+6gvTm5OOU7bnG47azmHOxc7Nzu/dLFz4blUuVwZTRsdMnru6KbRL1ztXQWuG11vuNHdxrotdGt1++zu4S5xr3fv87DwSPWo9rjuqe0Z47nE84wXwSvQa67XEa/33u7eBd77vf/ycfDJ9tnl82SM9RjBmG1jHvqa+XJ9t/h2+zH9Uv02+3X7m/pz/Wv8HwSYB/ADtgc8Ztmysli7Wc8DnQIlgYcC37K92bPZLUFYUGhQWVBHsFZwQvD64HshZiEZIXUhA6FuoTNDW8IIYRFhK8Kuc4w4PE4tZyDcI3x2eFsENSIuYn3Eg0i7SElk81h0bPjYVWPvRFlGiaIao0E0J3pV9N0Y65i8mN/GEcfFjKsa1xvrHDsrtj2OHjclblfcm/jA+GXxtxNsEqQJrYnqiRMTaxPfJgUlrUzqHj9q/Ozx55MNkoXJTSmklMSU7SmDE4InrJnQM9FtYunEa5OsJ02fdHayweScyUenqE/hTjmQSkhNSt2V+okbza3hDqZx0qrTBnhs3lreM34AfzW/T+ArWCl4nO6bvjL9SYZvxqqMvkz/zIrMfiFbuF74Iissa1PW2+zo7B3ZX3OScvbmquSm5h4WaYmyRW1TjadOn9oltheXirvzvPPW5A1IIiTb85H8SflNBdpwI39BaiP9SXq/0K+wqvDdtMRpB6ZrThdNvzDDbsbiGY+LQop+mYnP5M1snWU6a/6s+7NZs7fMQeakzWmdaz63ZG7PvNB5O+dT5mfP/73YqXhl8esFSQuaS4xK5pU8/Cn0p7pStVJJ6fWFPgs3LcIXCRd1LB69eN3iL2X8snPlTuUV5Z+W8Jac+9n558qfvy5NX9qxzH3ZxuXE5aLl11b4r9i5UnNl0cqHq8aualjNXF22+vWaKWvOVrhWbFpLWStd210ZWdm0zmLd8nWf1meuv1oVWLW32rB6cfXbDfwNlzYGbKzfZLSpfNOHzcLNN7aEbmmosaqp2ErcWri1d1vitvZfPH+p3W6wvXz75x2iHd07Y3e21XrU1u4y3LWsDq2T1vXtnri7c0/QnqZ6h/otexl7y/eBfdJ9T39N/fXa/oj9rQc8D9QftDxYfYh+qKwBaZjRMNCY2djdlNzUdTj8cGuzT/Oh3xx/23HE9EjVUZ2jy45RjpUc+3q86Phgi7il/0TGiYetU1pvnxx/8krbuLaOUxGnzpwOOX2yndV+/IzvmSNnvc8ePud5rvG8+/mGC24XDv3u9vuhDveOhoseF5s6vTqbu8Z0Hbvkf+nE5aDLp69wrpy/GnW161rCtRvXJ17vvsG/8eRmzs0Xtwpvfbw97w7hTtldjbsV9wzv1fxh+8febvfuo/eD7l94EPfg9kPew2eP8h996inppfVWPDZ5XPvE5cmRvpC+zqcTnvY8Ez/72F/6p+af1c9tnh/8K+CvCwPjB3peSF58fbnklf6rHa9dX7cOxgzee5P75uPbsnf673a+93zf/iHpw+OP0z6RPlV+tv3c/CXiy52vuV+/irkSrnwrgMGKpqcD8HIHALRkuHeA5zPKBMX5T14QxZlVjsB/woozory4A7AjAICEeQBEwj3KRlgtIabCVraFjw8A6OjRw3XorCY/V8oKEZ4DNtvJ0MUxmu/AD0Vx5vwu7h9bIFN1BT+2/wJSYHn1VJLu6QAAADhlWElmTU0AKgAAAAgAAYdpAAQAAAABAAAAGgAAAAAAAqACAAQAAAABAAACnKADAAQAAAABAAACpAAAAACVUpQtAABAAElEQVR4Ae3dT4tm2X0f8Nvqpk0XjoyQgpwZGmZ64+xky6OFVsGzEoigvITxzEIQkEHb4IUXgpCVwYKAFjOeRd6AFsZejcnKC40sK4uQEJgeaGaSEGllqIamms5zqvt2PVX1/Ln3PPfPOef3eaCnq57n3nPP+fzuM/Xte+556s5Xv/bNF50HAQIECBAgQIAAgZkEvjJTu5olQIAAAQIECBAgcCkgcDoRCBAgQIAAAQIEZhUQOGfl1TgBAgQIECBAgIDA6RwgQIAAAQIECBCYVUDgnJVX4wQIECBAgAABAgKnc4AAAQIECBAgQGBWAYFzVl6NEyBAgAABAgQICJzOAQIECBAgQIAAgVkF7s3ausYJECBQgcD9t88ue3nvT77+urcXj14+1z9x77Pz/svuxedPL79++slvXj/nCwIECBDYL3DHbxraj+MVAgTaFEgBsw+XN4NlzojvfvLby90E0Bw9+xAgEEFA4IxQZWMkQOBSoA+aU4TMfaTC5z4ZzxMgEFnAlHrk6hs7gSACD979Rvf83ZfT5Rczj7k/zoNXx3HVc2ZwzRMgUIWAwFlFmXSSAIEcgT5oPs/Z+cR9toPn88fn3bPNHw8CBAhEFTClHrXyxk2gYYHLRUAfPCxqhGmq3dXOokqiMwQILCggcC6I7VAECMwrsMQ9mqeOQPA8VdD+BAjUKCBw1lg1fSZA4JpADUHzWoc33wieN0V8T4BAywLu4Wy5usZGIIBAf5/m3IuBpqZM93imhUWm2aeW1R4BAiUKuMJZYlX0iQCBowI1XtXcNyhXO/fJeJ4AgVYEBM5WKmkcBIIItBQ0b5ZM8Lwp4nsCBFoREDhbqaRxEAggcPb+w27OD20vgTD9Cs30qzNNtZdQDX0gQGAqAfdwTiWpHQIEZhOo9T7NHJDLQL35Pe7u78zRsw8BAqUKuMJZamX0iwCBruXp86HlNc0+VMp2BAiULCBwllwdfSMQVEDQvF14wfO2iWcIEKhHwJR6PbXSUwIhBCJNn48paP8xSmkf93eOkbMtAQIlCAicJVRBHwgQ6PqgucbvPa+Ff/v3swudtVRNPwkQSAKm1J0HBAisKmD6PJ/fNHu+nT0JEFhWQOBc1tvRCBB4JSBoTncqCJ7TWWqJAIF5BEypz+OqVQIEDgj00+e1/TrKA0Na9aX+/s7nj8+7Z5s/HgQIEChNwBXO0iqiPwQaFkhXNbsPHjY8wvWH5mrn+jXQAwIEbgsInLdNPEOAwMQCps8nBh3QnOA5AMkmBAgsJiBwLkbtQATiCQia69dc8Fy/BnpAgEDXuYfTWUCAwCwC7tOchXV0o/39nT5GaTSdHQgQmFDAFc4JMTVFgEDn11EWfBK42llwcXSNQOMCAmfjBTY8AksJmD5fSvr04wiepxtqgQCBcQIC5zgvWxMgsEPg7P2H3cWjzQp0j2oE7n123r34/Klfk1lNxXSUQN0C7uGsu356T2BVAfdprsp/0sEv/4Gw+UfCg00r7u88idLOBAgMEHCFcwCSTQgQuC5g+vy6RwvfmWZvoYrGQKBcAYGz3NroGYHiBATN4koyeYcEz8lJNUiAwEbAlLrTgACBQQKmzwcxVb9R/zFKaSCm2qsvpwEQKEZA4CymFDpCoEyBPmg+L7N7ejWDQAqd6eH+zhlwNUkgqIAp9aCFN2wCxwRMnx8TivO6afY4tTZSAnMJCJxzyWqXQKUCgmalhVug24LnAsgOQaBRAVPqjRbWsAjkCPTT5xc5O9uneYH+/s7nj8+7Z5s/HgQIEBgq4ArnUCnbEWhYIF3V7D542PAIDW1qAVc7pxbVHoG2BQTOtutrdAQOCpg+P8jjxQECgucAJJsQINAJnE4CAgEFBM2ARZ95yILnzMCaJ1C5gHs4Ky+g7hMYK+A+zbFith8i0N/f6bM7h2jZhkA8AVc449XciIMKuKoZtPArDNvVzhXQHZJA4QICZ+EF0j0CpwoImqcK2j9XQPDMlbMfgfYEBM72ampEBF4LnL3/sLt4tFmB7kFgJYF7n513Lz5/6tdkruTvsARKEXAPZymV0A8CEwq4T3NCTE2dJHD5D57NP3r8msyTGO1MoHoBVzirL6EBELgSMH1+ZeGrMgVMs5dZF70iMLeAwDm3sPYJLCAgaC6A7BCTCgiek3JqjEDxAqbUiy+RDhI4LGD6/LCPV8sU6D9GKfXORymVWSO9IjClgMA5paa2CCwo0AfN5wse06EITCmQQmd6uL9zSlVtEShTwJR6mXXRKwJ7BUyf76XxQuUCptkrL6DuEzggIHAewPESgZIEBM2SqqEvcwoInnPqapvAOgKm1Ndxd1QCowT66fOLUXvZmECdAv39nc8fn3fPNn88CBCoX8AVzvpraAQNC6Srmt0HDxseoaEROCzgaudhH68SqEVA4KylUvoZSsD0eahyG+wAAcFzAJJNCBQsIHAWXBxdiycgaMaruRGPExA8x3nZmkApAu7hLKUS+hFewH2a4U8BAAME+vs7fXbnACybEChIwBXOgoqhKzEFXNWMWXejPl3A1c7TDbVAYCkBgXMpacchcENA0LwB4lsCmQKCZyac3QgsKCBwLojtUAR6gbP3H3YXjzYr0D0IEJhE4N5n592Lz5/6NZmTaGqEwPQC7uGc3lSLBPYKuE9zL40XCJwkcPkPuM0/4vyazJMY7UxgNgFXOGej1TCBKwHT51cWviKwhIBp9iWUHYPAcAGBc7iVLQmMFhA0R5PZgcCkAoLnpJwaI5AtYEo9m86OBA4LmD4/7ONVAksI9B+jlI7lo5SWEHcMArsFBM7dLp4lkC3QB83n2S3YkQCBKQVS6EwP93dOqaotAuMETKmP87I1gb0Cps/30niBQFECptmLKofOBBEQOIMU2jDnExA057PVMoE5BQTPOXW1TeC6gCn16x6+IzBKoJ8+vxi1l40JEChBoL+/8/nj8+7Z5o8HAQLzCbjCOZ+tlhsWSFc1uw8eNjxCQyMQS8DVzlj1NtrlBQTO5c0dsWIB0+cVF0/XCQwQEDwHINmEQIaAwJmBZpd4AoJmvJobcWwBwTN2/Y1+egH3cE5vqsXGBNyn2VhBDYfAAIH+/k6f3TkAyyYEBgi4wjkAySYxBVzVjFl3oyZwU8DVzpsivicwXkDgHG9mj8YFBM3GC2x4BDIFBM9MOLsR2AgInE4DAlsCZ+8/7C4ebVagexAgQGCHwL3PzrsXnz/1azJ32HiKwCEB93Ae0vFaGAH3aYYptYESOEng8h+km3+U+jWZJzHaOaCAK5wBi27IVwKmz68sfEWAwHgB0+zjzewRU0DgjFn38KMWNMOfAgAITCogeE7KqbEGBUypN1hUQzosYPr8sI9XCRAYL9B/jFLa00cpjfezR/sCAmf7NTbCVwJ90HxOhAABAjMIpNCZHu7vnAFXk9ULmFKvvoQGcEzA9PkxIa8TIDCHgGn2OVS1WauAwFlr5fT7qICgeZTIBgQILCAgeC6A7BDFC5hSL75EOpgj0E+fX+TsbB8CBAhMKNDf3/n88Xn3bPPHg0BEAVc4I1a94TGnq5rdBw8bHqGhESBQs4CrnTVXT99PERA4T9GzbzECps+LKYWOECAwQEDwHIBkk6YEBM6myhlvMIJmvJobMYGWBATPlqppLIcE3MN5SMdrRQu4T7Po8ugcAQIDBPr7O3125wAsm1Qt4Apn1eWL2XlXNWPW3agJtC7gamfrFY49PoEzdv2rGr2gWVW5dJYAgUwBwTMTzm5FCwicRZdH53qBs/cfdhePNivQPQgQIBBA4N5n592Lz5/6NZkBah1liO7hjFLpSsfpPs1KC6fbBAicJHD5D+zNP7L9msyTGO1ckIArnAUVQ1euBEyfX1n4igABAqbZnQO1CwictVewsf4Lmo0V1HAIEJhUQPCclFNjCwqYUl8Q26EOC5g+P+zjVQIECPQfo5QkfJSS86EmAYGzpmo12tc+aD5vdHyGRYAAgSkFUuhMD/d3TqmqrbkFTKnPLaz9vQKmz/fSeIEAAQKDBUyzD6ay4YoCAueK+FEPLWhGrbxxEyAwp4DgOaeutk8VMKV+qqD9Rwn00+cXo/ayMQECBAgcE+jv73z++Lx7tvnjQaAkAVc4S6pGw31JVzW7Dx42PEJDI0CAQDkCrnaWUws9eSkgcDoTZhUwfT4rr8YJECBwUEDwPMjjxQUFBM4FsSMdStCMVG1jJUCgdAHBs/QKtd8/93C2X+PFR+g+zcXJHZAAAQIHBfr7O31250EmL84o4ArnjLjRmnZVM1rFjZcAgRoFXO2ssWr191ngrL+Gq49A0Fy9BDpAgACB0QKC52gyO5wgIHCegGfXrjt7/2F38WizAt2DAAECBKoTuPfZeffi86d+TWZ1lauvw+7hrK9mRfTYfZpFlEEnCBAgcJLA5QWDzUUDvybzJEY7DxBwhXMAkk2uBEyfX1n4igABAq0JmGZvraLljEfgLKcWRfdE0Cy6PDpHgACBSQUEz0k5NbYRMKXuNDgqYPr8KJENCBAg0JRA/zFKaVA+Sqmp0q42GIFzNfryD9wHzefld1UPCRAgQGBigRQ608P9nRPDBm3OlHrQwh8atunzQzpeI0CAQEwB0+wx6z7VqAXOqSQbaEfQbKCIhkCAAIGZBQTPmYEbbd6UeqOFHTusfvr8YuyOtidAgACBUAL9/Z3PH593zzZ/PAgMEXCFc4hSw9ukq5rdBw8bHqGhESBAgMBcAq52ziXbXrsCZ3s1HTQi0+eDmGxEgAABAgMEBM8BSME3ETiDnQCCZrCCGy4BAgQWFBA8F8Su7FDu4aysYKd0132ap+jZlwABAgSOCfT3d/rszmNS8V53hTNAzV3VDFBkQyRAgEBhAq52FlaQlbsjcK5cgDkPL2jOqattAgQIEBgiIHgOUWp/G4Gz0Rqfvf+wu3i0WYHuQYAAAQIEVha499l59+Lzp35N5sp1WPPw7uFcU3+GY7tPcwZUTRIgQIDASQKXF0A2F0H8msyTGKve2RXOqst31XnT51cWviJAgACBsgVMs5ddnzl6J3DOobpgm4LmgtgORYAAAQKTCgiek3IW3Zgp9aLLc7hzps8P+3iVAAECBMoW6D9GKfXSRymVXatTeydwniq4wv590Hy+wrEdkgABAgQITCmQQmd6uL9zStXy2jKlXl5N9vbI9PleGi8QIECAQCMCptkbKeSNYQicN0BK/FbQLLEq+kSAAAECcwoInnPqLt+2KfXlzUcdsZ8+vxi1l40JECBAgEDdAv39nc8fn3fPNn886hZwhbPQ+qWrmt0HDwvtnW4RIECAAIHlBFztXM56riMJnHPJZrZr+jwTzm4ECBAg0LyA4FlviQXOQmonaBZSCN0gQIAAgeIFBM/iS3Srg+7hvEWy/BPu01ze3BEJECBAoF6B/v5On91ZTw1d4VyxVq5qrojv0AQIECDQhICrnXWUUeBcoU6C5groDkmAAAECTQsInmWXV+BcuD5n7z/sLh5tVqB7ECBAgAABApMK3PvsvHvx+VO/JnNS1Wkacw/nNI5HW3Gf5lEiGxAgQIAAgZMELi/obC7q+DWZJzHOsrMrnLOwXjVq+vzKwlcECBAgQGBJAdPsS2ofPpbAedgn+1VBM5vOjgQIECBAYFIBwXNSzqzGTKlnsR3eyfT5YR+vEiBAgACBJQX6j1FKx/RRSkvKXx1L4LyyOPmrPmg+P7klDRAgQIAAAQJTCqTQmR7u75xSdXhbptSHW+3d0vT5XhovECBAgACBIgVMsy9bFoHzBG9B8wQ8uxIgQIAAgQIEBM9limBKPdO5nz6/yNzfbgQIECBAgMD6Av39nc8fn3fPNn885hFwhXOka7qq2X3wcOReNidAgAABAgRKF3C1c74KCZwDbU2fD4SyGQECBAgQqFxA8Jy+gALnEVNB8wiQlwkQIECAQKMCgud0hXUP5wFL92kewPESAQIECBBoXKC/v9Nnd55eaFc4dxi6qrkDxVMECBAgQCCwgKudpxVf4NzyEzS3MHxJgAABAgQI3BIQPG+RDHpC4HzFdPb+w+7i0WYFugcBAgQIECBA4IDAvc/OuxefP/VrMg8Y3Xwp/D2c7tO8eUr4ngABAgQIEDgkcHmBanORyq/JPKR0/bWwVzhNn18/EXxHgAABAgQI5AmYZj/uFi5wCprHTwpbECBAgAABAuMFBM/9ZqGm1E2f7z8RvEKAAAECBAicJtB/jFJqxUcpXbcMETj7oPn8+th9R4AAAQIECBCYVCCFzvRwf+d11qan1E2fXy+27wgQIECAAIFlBUyzv/Ru9gpnf1XzYtnzytEIECBAgAABAq8F+mn26FPsTV7h9Jmar89zXxAgQIAAAQKFCES+2tnUFc40hd59sPkA90JOLN0gQIAAAQIECPQCka92fqVHqP3vPmzWPg79J0CAAAECBNoVuAyd736j3QHuGVkTVzj7+zX3jNHTBAgQIECAAIFiBCJe6az+Cme6spkK50GAAAECBAgQqEUg2pXOqgOnafRa3lb6SYAAAQIECNwUiBQ6qw6caYGQBwECBAgQIECgVoEUOi8voNU6gIH9rjZwpvs2PQgQIECAAAEC1QsEuIBWZeC0SKj6t5YBECBAgAABAlsC6TPEW35UGTgtEmr5lDQ2AgQIECAQT+Di0VnX8uxtdYGz5WLEe3sZMQECBAgQINALtHxBrbrA2XIx+hPO3wQIECBAgEBMgVYvrFUVOFstQsy3lFETIECAAAECNwVavbBWVeBstQg3TzbfEyBAgAABAnEFWrzAVk3gbBE/7lvJyAkQIECAAIF9Ai1eYKsmcLaIv+9E8zwBAgQIECAQW6C1D4OvInC2hh77LWT0BAgQIECAwDGBe3/y9WObVPV6FYHz7ttnVaHqLAECBAgQIEDgFIH0uZwtPaoInKbTWzrljIUAAQIECBAYItDSDG8VgXNIUWxDgAABAgQIEGhJoKUZ3uIDZ0vpvqU3gbEQIECAAAEC8wrceevBvAdYsPXiA2dL6X7BujoUAQIECBAgQKAYgeIDZzFSOkKAAAECBAgQWFCgpYVDxQfOli4nL3iOOhQBAgQIECDQgEArtxYWHzgbOFcMgQABAgQIECAQWqD4wNnS5eTQZ5rBEyBAgAABAmEFig+cYStj4AQIECBAgACBRgQEzkYKaRgECBAgQIAAgVIFBM5SK6NfBAgQIECAQHiBVj4e8l74SgIgMJHA99/89mVL333jWwdb/Icvf33t9b/54h+vfe8bAgROF+jfj6mlm+/J/j3ovXe6sxYIDBUQOIdK2Y7AlkD/w+xH77zX/fGbhwPm1m6XX/7w5hOvvv/lFy+D6Kdf/urymfRD0Q/EPVieJrAlsP1+TE8fe0/efA+m915633nPbaH6ksDEAne++rVvvpi4zUmbu/+TP5i0PY0RyBVIP9RSwEyPYz/QLjea6D9+GE4EqZmmBLZD5tTvx5/94uNLqz//xV83ZWYwdQrc/eS33dNPflNn57d6LXBuYfiSwC6BPmhO/UNt17GGPOeH4RAl27QqsPT7Mb3fBM9Wz6Y6xiVwLlQnVzgXgnaYWwJL/2C71YEBT6QfhqYBB0DZpHqBtd+Pgmf1p1C1AxA4FyqdwLkQtMO8Flj7B9vrjoz4op92dyVmBJpNqxH4yXf+tPvhd95bvb/eZ6uXIGQHBM6Fyi5wLgTtMJcCpfxgO6UcrsScomffkgRK/cef91hJZ0n7fRE4F6qxwLkQtMN0f/eDv1p0MdDc5H4ozi2s/TkFSv/HX7ra+b2f/9mcBNomcCnQSuD0we9O6PAC6SpKa2EzFTVNQf6/f/9fu/SD24NATQKlh81kmRYRpvdX+v+HBwECxwXu/s6D3/2L45utt8Xdd7+x3sEduXmB9MPi4x/8ZffGV3+/2bG+8+Yfdr/X3ek++fKfmh2jgbUjkP7x92//9feqGdC/2/TV+6uaclXZ0a88ftpdPD6vsu/bnXaFc1vD16EE+rAZYdCudkaocv1jrHWmIb2/XOms//wzgnkFBM55fbVeqECksLldgvSD0RT7toivSxFI52Upn3WbY5JmSoTOHDn7RBEQOKNU2jivCaQfDlEfrnZGrXy5467hns0hekLnECXbRBUQOKNWPvC407Sdx8tFRa52OhPWFmglbPaO/a+/7b/3NwECLwUETmdCKIHap+2mLpYp9qlFtTdWIJ2DLT3SbQH+IddSRY1lKgGBcypJ7RQv0NqVlKnAhc6pJLUzVqDVYJbeU+7nHHs22L51AYGz9Qob32uB1q6kvB7YBF8kG7caTACpicECrf8D0NT64FPBhkEEBM4ghY4+zFavpExZ1zQVKHROKaqtQwKt/wPQ1Pqh6nstooDAGbHqAcfc+g+3qUoqdE4lqZ1DAlH+Aej/O4fOAq9FExA4o1U84Hij/HCbqrRC51SS2tknECmI+f/PvrPA89EEBM5oFQ843kg/3KYqr9A5laR2bgpEC2DvvPFHNwl8TyCkgMAZsuxxBh3th9uUlXUP2pSa2uoFov0DML2PrFjvq+/vyAICZ+TqBxh7tB9uU5c0+QntU6vGbS9q8LJiPe45b+RXAgLnlYWvGhMQlKYpqNA5jaNWuu67b3wrJEO6yulBILqAwBn9DDB+AgMEUuiMenVqAI9NBgpEnnHw/hl4ktisWQGBs9nSGljkH25zVP/jH/zlHM1qk0AIAdPqIcpskAcEBM4DOF6qV8DVhHlq54Ph53GN0KpbXCJU2RgJ7BcQOPfbeKVigaj3is1dMivX5xbWfqsC7uNstbLGNVRA4BwqZTsCBC4FLCJyIuQI+DzKzn3QOSeOfZoREDibKaWBbAv44batMf3XQuf0plokQIBAywICZ8vVDTw201fzFz+FTvfKzu/cyhG8J+N+LFQr57BxnCYgcJ7mZ28CoQWsXA9dfoMnQIDAYAGBczCVDWsRcNVt2UpZub6st6MRIECgRgGBs8aq6TOBggSsXC+oGLpCgACBQgUEzkILo1sEahKwiKimaukrAQIElhcQOJc3d0QCTQoInU2W1aAIECAwiYDAOQmjRggQSAJWrjsPCBAgQGCXgMC5S8VzBAhkC6SV6xZuZfPZkQABAk0KCJxNltWgCKwr8KN33lu3A45OgAABAkUJCJxFlUNnCLQhkFau+7ikNmppFAQIEJhCQOCcQlEbBAjcEvBxSbdIPEGAAIGwAgJn2NIbOIH5Baxcn9/YEQgQIFCDgMBZQ5X0kUDFAlauV1w8XSdAgMBEAgLnRJCaIUBgv4CV6/ttvEKAAIEIAgJnhCobI4ECBKxcL6AIukCAAIGVBATOleAdlkA0ASvXo1XceAkQIHAlIHBeWfiKAIGZBaxcnxlY8wQIEChUQOAstDC6RaBVASvXW62scREgQGC/gMC538YrBAjMJGDl+kywmiVAgEChAgJnoYXRLQKtC1i53nqFjY8AAQJXAgLnlYWvCBBYWMDK9YXBHY4AAQIrCQicK8E7LAECXWflurOAAAECMQQEzhh1NkoCxQpYuV5saXSMAAECkwkInJNRaogAgVwBK9dz5exHgACBOgQEzjrqpJcEmhewcr35EhsgAQKBBQTOwMU3dAKlCVi5XlpF9IcAAQLTCAic0zhqhQCBiQSsXJ8IUjMECBAoSEDgLKgYukKAgJXrzgECBAi0KCBwtlhVYyJQuYCV65UXUPcJECBwQ0DgvAHiWwIEyhCwcr2MOugFAQIEphAQOKdQ1AYBArMIWLk+C6tGCRAgsLiAwLk4uQMSIDBGwMr1MVq2JUCAQJkCAmeZddErAgS2BKxc38LwJQECBCoUEDgrLJouE4gm4HeuR6u48RIg0JqAwNlaRY2HQKMCVq43WljDIkAghIDAGaLMBkmgDQEr19uoo1EQIBBPQOCMV3MjJlC1gJXrVZdP5wkQCCogcAYtvGETqFnAyvWaq6fvBAhEFBA4I1bdmAk0IGDlegNFNAQCBMIICJxhSm2gBNoSsHK9rXoaDQECbQsInG3X1+gINC1g5XrT5TU4AgQaEhA4GyqmoRCIKGDlesSqGzMBArUJCJy1VUx/CRC4JWDl+i0STxAgQKAoAYGzqHLoDAECuQJWrufK2Y8AAQLzCwic8xs7AgECCwlYub4QtMMQIEBgpIDAORLM5gQIlCtg5Xq5tdEzAgRiCwicsetv9ASaE7ByvbmSGhABAg0ICJwNFNEQCBC4LmDl+nUP3xEgQGBtAYFz7Qo4PgECswhYuT4Lq0YJECCQJSBwZrHZiQCBGgSsXK+hSvpIgEAEAYEzQpWNkUBggRQ6PQgQIEBgXQGBc11/RydAYAGBv/vBXy1wFIcgQIAAgX0CAuc+Gc8TINCMgJXrzZTSQAgQqFRA4Ky0cLpNgMA4ASvXx3nZmgABAlMKCJxTamqLAIGiBYTOosujcwQINCwgcDZcXEMjQOC2gI9Lum3iGQIECMwtIHDOLax9AgSKE7ByvbiS6BABAo0LCJyNF9jwCBDYLWDl+m4XzxIgQGAOAYFzDlVtEiBQvICV68WXSAcJEGhIQOBsqJiGQoDAOAGLiMZ52ZoAAQK5AgJnrpz9CBBoQkDobKKMBkGAQOECAmfhBdI9AgTmF7ByfX5jRyBAILaAwBm7/kZPgMArASvXnQoECBCYT0DgnM9WywQIVCZg5XplBdNdAgSqERA4qymVjhIYJ/DLL349bgdbd2nlutDpRCBAgMD0AgLn9KZaJFCEwKdf/qoTOseXwscljTezBwECBI4JCJzHhLxOoGKB7/38z4TOjPpZuZ6BZhcCBAgcEBA4D+B4iUALAj/99OMWhrH4GKxcX5zcAQkQaFhA4Gy4uIZGIAn8zRf/2L338x/DyBBIK9e//+a3M/a0CwECBAhsCwic2xq+JtCoQAqdP/vFx42Obt5h/eid9+Y9gNYJECAQQEDgDFBkQySQBP78F38tdGacClauZ6DZhQABAjcEBM4bIL4l0LJACp1Wro+vsJXr483sQYAAgW0BgXNbw9cEAghYuZ5XZCvX89zsRYAAgSQgcDoPCAQUsHI9r+hWrue52YsAAQICp3OAQEABK9fzi27ler6dPQkQiCsgcMatvZEHF7ByPf8EsHI9386eBAjEFBA4Y9bdqAlcCli5nnciWLme52YvAgTiCgiccWtv5AQuBaxczzsRrFzPc7MXAQIxBQTOmHU3agLXBKxcv8Yx+Bsr1wdT2ZAAgeACAmfwE8DwCfQCVq73EuP+tnJ9nJetCRCIKSBwxqy7URO4JWDl+i2SwU9YuT6YyoYECAQVEDiDFt6wCewSsHJ9l8qw56xcH+ZkKwIEYgoInDHrbtQE9gpYub6X5uALVq4f5PEiAQLBBQTO4CeA4RPYJWDl+i6V489ZuX7cyBYECMQUEDhj1t2oCRwVsHL9KNHODaxc38niSQIEggsInMFPAMMncEjAyvVDOvtfs3J9v41XCBCIKSBwxqy7URMYJGDl+iCmnRtZub6TxZMECAQVEDiDFt6wCQwVsHJ9qNTt7axcv23iGQIEYgoInDHrbtQERglYuT6K6/XGVq6/pvAFAQLBBQTO4CeA4RMYKiB0DpW6vp2V69c9fEeAQEwBgTNm3Y2aQJaAj0vKYuusXM9zsxcBAu0ICJzt1NJICCwikD4uyWO8gJXr483sQYBAOwICZzu1NBICiwm89/MfL3aslg5k5XpL1TQWAgTGCAicY7RsS4DApYCV6/kngpXr+Xb2JECgXgGBs97a6TmBVQUsIsrjt3I9z81eBAjULSBw1l0/vSewqoDQmcdv5Xqem70IEKhXQOCst3Z6TqAIASvX88pg5Xqem70IEKhTQOCss256TaAoASvX88ph5Xqem70IEKhPQOCsr2Z6TKBIASvX88pi5Xqem70IEKhLQOCsq156S6BYASvX80tj5Xq+nT0JEKhDQOCso056SaAKAYuI8spk5Xqem70IEKhHQOCsp1Z6SqAKAaEzr0xWrue52YsAgToEBM466qSXBKoSsHI9r1xWrue52YsAgfIFBM7ya6SHBKoUSCvXf/nFr6vs+5qdtnJ9TX3HJkBgLgGBcy5Z7RIg0P30048pZAhYuZ6BZhcCBIoWEDiLLo/OEahbIK1c93FJeTW0cj3PzV4ECJQpIHCWWRe9ItCMgI9Lyiullet5bvYiQKBMAYGzzLroFYGmBKxczyunlet5bvYiQKA8AYGzvJroEYEmBaxczyurlet5bvYiQKAsAYGzrHroDYGmBaxczyuv0JnnZi8CBMoREDjLqYWeEAghYOV6Xpl9XFKem70IEChDQOAsow56QSCMgJXr+aVOH5fkQYAAgRoFBM4aq6bPBCoXsHI9v4B/94O/yt/ZngQIEFhJQOBcCd5hCUQXsHI97wywcj3PzV4ECKwrIHCu6+/oBEILWLmeV36LiPLc7EWAwHoCAud69o5MgMBGwMr1vNNA6MxzsxcBAusICJzruDsqAQJbAlaub2GM+NLK9RFYNiVAYFUBgXNVfgcnQCAJWLmefx5YuZ5vZ08CBJYTEDiXs3YkAgQOCFi5fgDnyEtWrh8B8jIBAqsLCJyrl0AHCBDoBaxc7yXG/W3l+jgvWxMgsLyAwLm8uSMSIHBAwMr1AzgHXrKI6ACOlwgQWF1A4Fy9BDpAgMBNASvXb4oM+17oHOZkKwIElhcQOJc3d0QCBAYIWLk+AGnHJlau70DxFAECqwsInKuXQAcIENglYOX6LpVhz6WV699/89vDNrYVAQIEFhAQOBdAdggCBPIErFzPc0t7/eid9/J3ticBAgQmFhA4JwbVHAEC0wpYuZ7nmVau+7ikPDt7ESAwvYDAOb2pFgkQmFjAyvU8UB+XlOdmLwIEphcQOKc31SIBAjMIWLmeh2rlep6bvQgQmFZA4JzWU2sECMwoYOV6Hq6V63lu9iJAYDoBgXM6Sy0RIDCzgJXr+cBWrufb2ZMAgdMFBM7TDbVAgMCCAlau52NbuZ5vZ08CBE4TEDhP87M3AQIrCFi5nodu5Xqem70IEDhdQOA83VALBAisIGDleh66let5bvYiQOA0AYHzND97EyCwooCV63n4Vq7nudmLAIF8AYEz386eBAgUIGDlel4RrFzPc7MXAQJ5AgJnnpu9CBAoRMDK9fxCWLmeb2dPAgTGCQic47xsTYBAgQJWrucXxcr1fDt7EiAwXEDgHG5lSwIEChawcj2vOFau57nZiwCBcQIC5zgvWxMgULCAlet5xbFyPc/NXgQIDBcQOIdb2ZIAgQoErFzPK5KV63lu9iJAYJiAwDnMyVYECFQkYOV6XrGsXM9zsxcBAscFBM7jRrYgQKAyASvX8wtm5Xq+nT0JENgvIHDut/EKAQIVC1i5nl88K9fz7exJgMBuAYFzt4tnCRBoQMDK9bwiWrme52YvAgT2Cwic+228QoBAAwJWrucV0cr1PDd7ESCwW0Dg3O3iWQIEGhKwcj2vmFau57nZiwCB2wIC520TzxAg0KBACp0e4wWsXB9vZg8CBG4LCJy3TTxDgECjAu/9/MeNjmzeYVm5Pq+v1glEEBA4I1TZGAkQuBSwcj3/RLByPd/OngQIdJ3A6SwgQCCUgJXreeW2cj3PzV4ECLwUEDidCQQIhBMQOvNKbuV6npu9CBBwhdM5QIBAUAEfl5RXeCvX89zsRSC6gCuc0c8A4ycQWMDK9bziW7me52YvApEFBM7I1Td2AgQ6K9fzTgIr1/Pc7EUgqoDAGbXyxk2AwKWAlev5J4KV6/l29iQQTUDgjFZx4yVA4JaARUS3SAY9YeX6ICYbESCwERA4nQYECBDYCAideaeBlet5bvYiEE1A4IxWceMlQGCvgJXre2kOvmDl+kEeLxIgsBEQOJ0GBAgQ2BKwcn0LY8SXVq6PwLIpgYACAmfAohsyAQKHBaxcP+yz71Ur1/fJeJ4AAYHTOUCAAIEbAlau3wAZ8a2V6yOwbEogkIDAGajYhkqAwHABi4iGW21vaeX6toavCRDoBQTOXsLfBAgQuCEgdN4AGfitlesDoWxGIJCAwBmo2IZKgMB4ASvXx5ulPaxcz3OzF4FWBQTOVitrXAQITCaQVq7/8otfT9ZelIasXI9SaeMkcFxA4DxuZAsCBAh0P/30YwoZAlauZ6DZhUCDAgJng0U1JAIEphdIK9d9XFKeawqdHgQIxBYQOGPX3+gJEBgh4OOSRmDZlAABAlsCAucWhi8JECBwTMDK9WNCXidAgMBtAYHztolnCBAgcFDAyvWDPF4kQIDALQGB8xaJJwgQIHBcwMr140a2IECAQC8gcPYS/iZAgMBIASvXR4LZnACBsAICZ9jSGzgBAqcKWLl+qqD9CRCIIiBwRqm0cRIgMIuAleuzsGqUAIHGBATOxgpqOAQILC9g5fry5o5IgEBdAgJnXfXSWwIEChWwcr3QwugWAQJFCAicRZRBJwgQaEHAyvUWqmgMBAjMISBwzqGqTQIEwgpYuR629AZOgMABAYHzAI6XCBAgMFbAyvWxYrYnQCCCgMAZocrGSIDAogJWri/K7WAECFQgIHBWUCRdJECgPgEr1+urmR4TIDCfgMA5n62WCRAILmDlevATwPAJEHgtIHC+pvAFAQIEphewcn16Uy0SIFCfgMBZX830mACBygSsXK+sYLpLgMDkAgLn5KQaJECAwHUBK9eve/iOAIF4AgJnvJobMQECKwhYub4CukMSIFCMgMBZTCl0hACB1gWsXG+9wsZHgMA+AYFzn4znCRAgMIOAleszoGqSAIHiBQTO4kukgwQItCZg5XprFTUeAgSOCQicx4S8ToAAgRkErFyfAVWTBAgUKyBwFlsaHSNAoGUBK9dbrq6xESBwU0DgvCniewIECCwkYOX6QtAOQ4DA6gIC5+ol0AECBCILWLkeufrGTiCOgMAZp9ZGSoBAoQJWrhdaGN0iQGAyAYFzMkoNESBAIF/AyvV8O3sSIFC+gMBZfo30kACBIAJWrgcptGESCCggcAYsuiETIFCmgJXrZdZFrwgQOF1A4DzdUAsECBCYTMDK9ckoNUSAQEECAmdBxdAVAgQIJAEr150HBAi0JiBwtlZR4yFAoAkBK9ebKKNBECDwSkDgdCoQIECgUAEr1wstjG4RIDBaQOAcTWYHAgQILCdg5fpy1o5EgMB8AgLnfLZaJkCAwMkCVq6fTKgBAgQKEBA4CyiCLhAgQOCQgJXrh3S8RoBADQICZw1V0kcCBMILWLke/hQAQKBqAYGz6vLpPAECkQSEzkjVNlYCbQkInG3V02gIEGhcwMclNV5gwyPQqIDA2WhhDYsAgXYF0scleRAgQKAmAYGzpmrpKwECBF4JvPfzH7MgQIBANQICZzWl0lECBAhcCVi5fmXhKwIEyhcQOMuvkR4SIEBgp4BFRDtZPEmAQIECAmeBRdElAgQIDBUQOodK2Y4AgTUFBM419R2bAAECEwhYuT4BoiYIEJhVQOCclVfjBAgQWEbAyvVlnB2FAIE8AYEzz81eBAgQKE7AyvXiSqJDBAi8EhA4nQoECBBoRMDK9UYKaRgEGhQQOBssqiERIBBXwCKiuLU3cgIlCwicJVdH3wgQIJAhIHRmoNmFAIFZBQTOWXk1ToAAgXUErFxfx91RCRDYLSBw7nbxLAECBKoXSCvXf/nFr6sfhwEQIFC/gMBZfw2NgAABAnsFfvrpx3tf8wIBAgSWEhA4l5J2HAIECKwgkFau+7ikFeAdkgCBawIC5zUO3xAgQKA9AR+X1F5NjYhAbQICZ20V018CBAhkCFi5noFmFwIEJhMQOCej1BABAgTKFrByvez66B2BlgUEzpara2wECBC4IWDl+g0Q3xIgsIiAwLkIs4MQIECgHAEr18uphZ4QiCIgcEaptHESIEDglYCV604FAgSWFhA4lxZ3PAIECBQgYOV6AUXQBQKBBATOQMWOMtT0g9SDAIHjAlauHzeyBQEC0wgInNM4aoVAcQL/8KVfaVhcUQrskJXryxXFe3I5a0cqT0DgLK8mekSAAIFFBaxcX5TbwQiEFBA4Q5a9/UH/8gtX99xa0P55PuUIrVyfUnN3W96Tu108G0NA4IxRZ6MkQIDAQYEUhvzO9YNEJ73oH8En8dm5AQGBs4EiGsJtgehXa372i49vo3iGwBGBFDqdO0eQMl/+9MtfZe5pNwJtCAicbdTRKAgQIDCJgJXrkzBqhACBGwIC5w0Q37YhEP1eKath2ziP1xqFlevTyydTDwKRBQTOyNVvfOyR75mKHrgbP7UXGZ6V69Mxu01hOkst1SsgcNZbOz0/IhD1Pk4/3I6cGF4eLBD1PTQYyIYECAwWEDgHU9mwNoGoV/lMp9d2ppbb3/QesnL99PqYTj/dUAv1Cwic9dfQCA4IRLval24jiBq0D5wGXjpBIJ1P0d5HJ3Dd2pXdLRJPBBUQOIMWPsqwo11Z8NErUc7sZceZ3keCU555tP8H5SnZK4KAwBmhysHHGGnxkB9uwU/2GYcvdI7HFdLHm9mjXQGBs93aGtkrgbTaNsLDD7cIVV53jELnOH//ABznZeu2BQTOtutrdK8EWg9jaXx+uDndlxAQOocpt/7/nGEKtiJwJSBwXln4qmGB9EOy5al1K9MbPnkLHJrQebgo/gF42MerMQUEzph1DznqVj9TMP1wszI95Cm96qCFzv38ycaDAIHrAnd/58Hv/sX1p8r67u673yirQ3pTrcD/+uf/3f1ed6d7580/rHYMNzvuSspNEd8vKfDJl//U/fcv/1v38F/8q+6Nr/7+kocu9ljpPZlcPAhMJfCVx0+7i8fnUzW3WjsC52r0DryGQPpB0EroTLcIvP/Jf1yD0TEJvBZI/5D7L//zb5t5X70eWMYX/gGYgWaXowKtBE5T6kdLbYPWBFq5n7PVWwRaO9+ijCf6FLuwGeVMN85cAYEzV85+VQukj0qqeRFR+nWD7tus+hRssvMpdP7L//xvwn1IvLDZ5OlsUBMLCJwTg2quHoFaQ6ewWc85FrWnka52CptRz3LjHisgcI4Vs31TAil0ph8YNTzSFVlhs4ZK6WMSiHC1U9h0rhMYLmDR0HArWzYqUMNCohQ2UzhOCzQ8CNQk0K9k/7///H+a+YSI9H78D3//n7qf/Y+/rakU+lqpQCuLhu5V6q/bBCYVSFdj0uOH33nv8u+S/uMqSknV0JccgXS/8fY9xyW+z4aOq//H39DtbUeAwEuBO1/92jdflIxx/yd/UHL39K1BgZ9850+LCJ7pB1taib79g7pBbkMKKJDeY+lRU/D0fgx4ohYy5Luf/LZ7+slvCulNfjcEznw7ezYusFbw9IOt8RPL8K4JpPfZO2/8UffHb37r2vMlfWOWoaRqxOuLwLlQzV3hXAjaYXYKfP/Nb3fffeNbi1yJETR3lsCTQQT691pJ4VPQDHLyFT5MgXOhAgmcC0E7zFGBOa7EpJCZHqbOj/LbIJjAWtPu/uEX7ESrYLgC50JFEjgXgnaYUQL9D8OcqzH9D7R0QPdnjmK3cWCB/j2XCHLed/vo0vvx0y9/1f3Dl7/2ftyH5PlVBQTOhfgFzoWgHeZkgTQlmB5pCr5/pB9i/UO47CX8TWA6gf59t93i9ntw+/n0tffkTRHfly4gcC5UIYFzIWiHIUCAAAECBIoTaCVw+k1DxZ1aOkSAAAECBAgQaEtA4GyrnkZDgAABAgQINCTw/PF5E6MROJsoo0EQIECAAAECBMoVKD5w3vusjWRf7imgZwQIECBAgACBeQWKD5zzDl/rBAgQIECAAAECcwsInHMLa58AAQIECBAgkCnwzD2cmXIjd3vx+dORe9icAAECBAgQIECgJIHir3C2sjqrpKLrCwECBAgQIFC+QPoMzlYexQfOVi4lt3LCGAcBAgQIECBAYKxA8YEzDchK9bFltT0BAgQIECBQu0BLs7xVBM7aTxj9J0CAAAECBAiMFWhplreKwHnx9+3cwzD2ZLM9AQIECBAgEE+gpfs3U/WqCJwp4ZtWj/dmM2ICBAgQIECgDYEqAmcb1EZBgAABAgQIEBgm8PST3wzbsJKtqgmcptUrOaN0kwABAgQIEDhJoLXp9IRRTeA0rX7SuWtnAgQIECBAoBKB1q5uJvZqAmfqrKucScGDAAECBAgQaFWgxaubqVZVBU5XOVt9exkXAQIECBAgkARavLqZxlVV4EwdPv/oSfrLgwABAgQIECDQlECrVzdTkaoLnJdn1odCZ1PvMIMhQIAAAQLBBVLYbPXqZiptlYHT1Hrwd6XhEyBAgACBxgRaDpupVFUGztRxU+tJwYMAAQIECBCoXaDlqfS+NtUGzssBmFrv6+hvAgQIECBAoEKB1qfS+5JUHTjT1HondPa19DcBAgQIECBQkUCUsJlKUnXgTANIoTPCpeg0Vg8CBAgQIECgDYFIYTNVrPrAmQaRbrQVOpOEBwECBAgQIFC6QLSwmerRROBMA7lc3WV6PVF4ECBAgAABAoUKRAybqRR3vvq1b74otCbZ3Tp7/2F38egse387EiBAgAABAgSmFogaNpNjk4EzDezBu9/onr/79fSlBwECBAgQIEBgNYF7n513F3//28t1J6t1YuUDNxs4k+v9t8+6e3/ydVc7Vz7JHJ4AAQIECEQViHxVc7vmTQfOfqCudvYS/iZAgAABAgSWEHBV87pyiMDZD1nw7CX8TYAAAQIECMwhIGjuVg0VOBNBmma/u/nj/s7dJ4RnCRAgQIAAgUyBzaflXP5SmszdW97tXsuD2zW2yxNh82HxDzYvCp27hDxHgAABAgQIjBFwn+ZxrXBXOG+SmGa/KeJ7AgQIECBAYIiA6fMhSi+3CR84eyrBs5fwNwECBAgQIHBIQNA8pLP7tXBT6rsZXv6mojTNnh6m2l86+C8BAgQIECBwXSBNn59vfqW2xzgBgXPL6/LXY26+d3/nFoovCRAgQIAAgc59mqedBKbUD/iZZj+A4yUCBAgQIBBAwPT5NEUWOAc4Cp4DkGxCgAABAgQaEhA0py2mKfUBnmmqPU2z33nrgV+TOcDLJgQIECBAoGYB92lOXz1XOEeauto5EszmBAgQIECgEoF0VfP8oyeV9LaubgqcmfUSPDPh7EaAAAECBAoTMH0+f0EEzhONBc8TAe1OgAABAgRWEhA0l4N3D+eJ1v39nT6780RIuxMgQIAAgQUF3Ke5IPbmUK5wTujtaueEmJoiQIAAAQIzCLiqOQPqgCYFzgFIYzcRPMeK2Z4AAQIECMwrIGjO63usdYHzmFDm6/ffPuvubv6Yas8EtBsBAgQIEJhK4MMn3bPH51O1pp0MAfdwZqAN2eXyxN6c3H5N5hAt2xAgQIAAgekF/DrK6U1zW3SFM1du5H6m2UeC2ZwAAQIECGQKmD7PhJtxN4FzRtxdTQueu1Q8R4AAAQIEThcQNE83nKsFU+pzye5pt/8YpfSy+zv3IHmaAAECBAiMFPAxRyPBFt5c4FwYPB0uhc70cH/nJYP/ECBAgACBbAH3aWbTLbqjKfVFuXcfzDT7bhfPEiBAgACBfQKmz/fJlPm8wFlQXQTPgoqhKwQIECBQpICgWWRZjnbKlPpRouU26O/vvPPWg+7i0dlyB3YkAgQIECBQgYD7NCso0p4uusK5B2btp13tXLsCjk+AAAECpQikq5rnHz0ppTv6kSEgcGagLbmL4LmktmMRIECAQEkCps9LqsZpfRE4T/NbbG/BczFqByJAgACBlQUEzZULMMPh3cM5A+ocTfb3d/rszjl0tUmAAAECpQi4T7OUSkzbD1c4p/VcpDVXOxdhdhACBAgQWFDAVc0FsVc4lMC5AvpUhxQ8p5LUDgECBAisJSBoriW/7HEFzmW9Jz/a/bfPurubP6baJ6fVIAECBAjMLfDhk+7Z4/O5j6L9AgTcw1lAEU7pwuUbdfNm9WsyT1G0LwECBAgsKeDXUS6pXcaxXOEsow6T9cI0+2SUGiJAgACBiQVMn08MWlFzAmdFxRrTVcFzjJZtCRAgQGBOAUFzTt062jalXkedRvey/xiltKP7O0fz2YEAAQIEJhLwMUcTQVbejMBZeQEPdT+FzvRwf+chJa8RIECAwBwC7tOcQ7XeNk2p11u70T03zT6azA4ECBAgMFLA9PlIsCCbC5xBCr09TMFzW8PXBAgQIDCFgKA5hWK7bZhSb7e2e0fW3995560H3cWjs73beYEAAQIECAwRcJ/mEKXY27jCGbv+naudwU8AwydAgMAJAumq5vlHT05owa5RBATOKJU+Mk7B8wiQlwkQIEDgtYDp89cUvhgoIHAOhIqymeAZpdLGSYAAgfECguZ4M3u8FHAPpzPhmkB/f6fP7rzG4hsCBAiEF3CfZvhT4CQAVzhP4mt7Z1c7266v0REgQGCIgKuaQ5Rsc0xA4Dwm5HULi5wDBAgQCCggaAYs+oxDFjhnxG2p6ftvn3V3N39MtbdUVWMhQIDAHoEPn3TPHp/vedHTBMYLuIdzvFnIPS7/x7P5n49fkxmy/AZNgEAQAb+OMkihVximK5wroLdwSPd3tlBFYyBAgMBLAdPnzoS5BQTOuYUbb1/wbLzAhkeAQNMCgmbT5S1qcKbUiypHfZ3pP0Yp9dz9nfXVT48JEIgr4GOO4tZ+jZELnGuoN3bMFDrTw/2djRXWcAgQaFLAfZpNlrX4QZlSL75E9XXQNHt9NdNjAgTaFzB93n6NSx6hwFlydSrvm+BZeQF1nwCBJgQEzSbKWP0gTKlXX8JyB9Df33nnrQfdxaOzcjuqZwQIEGhUwH2ajRa2wmG5wllh0WrssqudNVZNnwkQqFUgXdU8/+hJrd3X7wYFBM4Gi1rykATPkqujbwQI1C5g+rz2Crbbf4Gz3doWPTLBs+jy6BwBApUJCJqVFSxgd93DGbDoJQy5v7/TZ3eWUA19IECgZgH3adZcvTh9d4UzTq2LHamrncWWRscIEChYwFXNgouja7cEBM5bJJ5YS0DwXEvecQkQqElA0KypWvraCwicvYS/ixC4//ZZd3fzx1R7EeXQCQIEShP48En37PF5ab3SHwJHBdzDeZTIBksKXP6PdPM/U78mc0l1xyJAoHQBv46y9Arp3zEBVziPCXl9VQHT7KvyOzgBAisLmD5fuQAOP5mAwDkZpYbmFBA859TVNgECpQkImqVVRH9OFTClfqqg/RcR6D9GKR3M/Z2LkDsIAQIrCfiYo5XgHXZWAYFzVl6NTymQQmd6uL9zSlVtESBQioD7NEuphH7MIWBKfQ5VbS4iYJp9EWYHIUBgZgHT5zMDa74IAYGziDLoxCkCgucpevYlQGAtAUFzLXnHXUPAlPoa6o45qUB/f+edtx50F4/OJm1bYwQIEJhDwH2ac6hqs2QBVzhLro6+jRZwtXM0mR0IEFhQIF3VPP/oyYJHdCgCZQgInGXUQS8mFhA8JwbVHAECJwmYPj+Jz84NCAicDRTREPYLCJ77bbxCgMD8AoLm/MaOUIeAezjrqJNeZgr093f67M5MQLsRIJAt4D7NbDo7NijgCmeDRTWk3QKudu528SwBAtMKuKo5rafW2hAQONuoo1GMEBA8R2DZlACBwQKC5mAqGwYUEDgDFt2Qu+7+22fd3c0fU+3OBgIEJhH48En37PH5JE1phECLAu7hbLGqxnRU4PIHw+aHg1+TeZTKBgQIHBDw6ygP4HiJwJaAK5xbGL6MK2CaPW7tjZxAjoDp8xw1+0QWEDgjV9/YbwkInrdIPEGAwJaAoLmF4UsCIwRMqY/Asmn7Av3HKKWRur+z/XobIYExAj7maIyWbQlcFxA4r3v4jkCXQmd6uL/TyUCAQBJwn6bzgMDpAqbUTzfUQuMCptkbL7DhEdgjYPp8D4ynCWQICJwZaHaJKSB4xqy7UccTEDTj1dyI5xcwpT6/sSM0ItDf33nnrQfdxaOzRkZlGzTvhQAACBZJREFUGAQIbAu4T3Nbw9cEphNwhXM6Sy0FEnC1M1CxDTWEQLqqef7RkxBjNUgCawgInGuoO2YzAoJnM6U0kKACps+DFt6wFxcQOBcnd8AWBQTPFqtqTC0LCJotV9fYShRwD2eJVdGn6gT6+zt9dmd1pdPhgALu0wxYdENeXcAVztVLoAOtCbja2VpFjacVAVc1W6mkcdQoIHDWWDV9rkJA8KyiTDoZQEDQDFBkQyxeQOAsvkQ6WLPA/bfPurubP6baa66ivlct8OGT7tnj86qHoPMEWhBwD2cLVTSGYgUuf9Btftj5NZnFlkjHGhXw6ygbLaxhVSvgCme1pdPxGgVMs9dYNX2uScD0eU3V0tdIAgJnpGobazECgmcxpdCRRgQEzUYKaRjNCphSb7a0BlayQP8xSqmP7u8suVL6VoOAjzmqoUr6GF1A4Ix+Bhj/agIpdKaH+ztXK4EDVy7gPs3KC6j7oQRMqYcqt8GWLGCaveTq6FtJAqbPS6qGvhAYJiBwDnOyFYHFBATPxagdqDIBQbOygukugS0BU+pbGL4kUIJAf3/nnbcedBePzkrokj4QWF3AfZqrl0AHCJwk4ArnSXx2JjCvgKud8/pqvXyBdFXz/KMn5XdUDwkQOCggcB7k8SKBMgQEzzLqoBfLCZg+X87akQgsISBwLqHsGAQmEhA8J4LUTLECgmaxpdExAicJuIfzJD47E1hWoL+/02d3LuvuaMsIuE9zGWdHIbCGgCuca6g7JoEJBFztnABRE0UIuKpZRBl0gsCsAgLnrLwaJzC/gOA5v7EjzCMgaM7jqlUCJQoInCVWRZ8IjBS4//ZZd3fzx1T7SDibryfw4ZPu2ePz9Y7vyAQILCrgHs5FuR2MwDwClz+4Nz+8/ZrMeXy1Op2AX0c5naWWCNQk4ApnTdXSVwIDBUyzD4Sy2WICps8Xo3YgAkUKCJxFlkWnCEwjIHhO46iVfAFBM9/OngRaEjCl3lI1jYXADYH+Y5TS0+7vvIHj29kFfMzR7MQOQKAaAYGzmlLpKIE8gRQ608P9nXl+9hov4D7N8Wb2INC6gCn11itsfARuCJhmvwHi28kETJ9PRqkhAs0JCJzNldSACAwTEDyHOdnquICgedzIFgSiC5hSj34GGH9Ygf7+zjtvPeguHp2FdTDw0wTcp3man70JRBFwhTNKpY2TwAEBVzsP4Hhpp0C6qnn+0ZOdr3mSAAECNwUEzpsivicQWEDwDFz8gUM3fT4QymYECFwTEDivcfiGAIEkIHg6D24KCJo3RXxPgMAYAfdwjtGyLYEgAv39nT67M0jBjwzTfZpHgLxMgMBRAVc4jxLZgEBsAVc749bfVc24tTdyAlMLCJxTi2qPQKMCgmejhd0xLEFzB4qnCBA4SUDgPInPzgRiCdx/+6y7u/ljqr3hun/4pHv2+LzhARoaAQJrCLiHcw11xyRQqcBlENmEEb8ms9ICHui2X0d5AMdLBAicLOAK58mEGiAQV8A0e/21N31efw2NgEANAgJnDVXSRwKFCwiehRdoR/cEzR0oniJAYDYBU+qz0WqYQByB/mOU0ojd31l+3X3MUfk10kMCrQkInK1V1HgIrCSQQmd6uL9zpQIMOKz7NAcg2YQAgVkETKnPwqpRAgRMs5dzDpg+L6cWekIgqoDAGbXyxk1gIQHBcyHoHYcRNHegeIoAgVUETKmvwu6gBOII9Pd33nnrQXfx6CzOwFceqfs0Vy6AwxMgcE3AFc5rHL4hQGBOAVc759R92Xa6qnn+0ZP5D+QIBAgQGCEgcI7AsikBAtMICJ7TOG63Yvp8W8PXBAiUJiBwllYR/SEQSEDwPL3YgubphlogQGB+Afdwzm/sCAQI7BHo7+/02Z17gI487T7NI0BeJkCgGAFXOIsphY4QiC3gaufw+ruqOdzKlgQIlCEgcJZRB70gQOCVgOC5/1QQNPfbeIUAgbIFBM6y66N3BEIK3H/7rLu7+WOqfav8Hz7pnj0+33rClwQIEKhHwD2c9dRKTwmEEbgMVptw5ddkdp1fRxnmtDdQAk0LuMLZdHkNjkAbAhGn2U2ft3HuGgUBAi8FBE5nAgEC1QhECJ6CZjWno44SIDBCwJT6CCybEiCwrkD/MUqpFy3e3+ljjtY9vxydAIH5BATO+Wy1TIDADAIpdKZHS/d3uk9zhhNFkwQIFCVgSr2ocugMAQJjBWqeZjd9PrbatidAoFYBgbPWyuk3AQLXBGoKnoLmtdL5hgCBAAKm1AMU2RAJRBDo7++889aD7uLRWbFDdp9msaXRMQIEZhRwhXNGXE0TILCOQIlXO9NVzfOPnqwD4qgECBBYWUDgXLkADk+AwHwCJQRP0+fz1VfLBAjUIyBw1lMrPSVAIFNgjeApaGYWy24ECDQpIHA2WVaDIkBgl0AKnnPf4ylo7pL3HAEC0QUEzuhngPETCChw/+2z7u7mz1ThU8gMeBIZMgECowQEzlFcNiZAoEWBPoCmsaUQmh43V7qnUNk/Xnz+tHv++OX3z1793b/mbwIECBC4LSBw3jbxDAECBAgQIECAwIQCX5mwLU0RIECAAAECBAgQuCUgcN4i8QQBAgQIECBAgMCUAgLnlJraIkCAAAECBAgQuCUgcN4i8QQBAgQIECBAgMCUAgLnlJraIkCAAAECBAgQuCUgcN4i8QQBAgQIECBAgMCUAgLnlJraIkCAAAECBAgQuCUgcN4i8QQBAgQIECBAgMCUAgLnlJraIkCAAAECBAgQuCXw/wGDhEMo13cEzAAAAABJRU5ErkJggg==;" vertex="1" parent="1">
          <mxGeometry x="339.17" y="265" width="29.65" height="30" as="geometry" />
        </mxCell>
        <mxCell id="EV37W_cAb1lumJegeBz7-18" style="edgeStyle=orthogonalEdgeStyle;rounded=0;orthogonalLoop=1;jettySize=auto;html=1;entryX=0;entryY=0.5;entryDx=0;entryDy=0;" edge="1" parent="1" source="EV37W_cAb1lumJegeBz7-17" target="EV37W_cAb1lumJegeBz7-2">
          <mxGeometry relative="1" as="geometry" />
        </mxCell>
        <mxCell id="EV37W_cAb1lumJegeBz7-17" value="" style="sketch=0;outlineConnect=0;fontColor=#232F3E;gradientColor=none;fillColor=#232F3D;strokeColor=none;dashed=0;verticalLabelPosition=bottom;verticalAlign=top;align=center;html=1;fontSize=12;fontStyle=0;aspect=fixed;pointerEvents=1;shape=mxgraph.aws4.user;" vertex="1" parent="1">
          <mxGeometry x="-40" y="261" width="78" height="78" as="geometry" />
        </mxCell>
        <mxCell id="EV37W_cAb1lumJegeBz7-21" value="" style="endArrow=none;dashed=1;html=1;rounded=0;exitX=0.221;exitY=0.8;exitDx=0;exitDy=0;exitPerimeter=0;strokeColor=#0000FF;" edge="1" parent="1" source="EV37W_cAb1lumJegeBz7-1">
          <mxGeometry width="50" height="50" relative="1" as="geometry">
            <mxPoint x="270" y="390" as="sourcePoint" />
            <mxPoint x="70" y="300" as="targetPoint" />
          </mxGeometry>
        </mxCell>
        <mxCell id="EV37W_cAb1lumJegeBz7-22" value="&lt;font color=&quot;#0000ff&quot;&gt;80, 443 포트&lt;/font&gt;" style="text;strokeColor=#0000FF;align=center;fillColor=none;html=1;verticalAlign=middle;whiteSpace=wrap;rounded=0;dashed=1;" vertex="1" parent="1">
          <mxGeometry x="30" y="440" width="82" height="30" as="geometry" />
        </mxCell>
        <mxCell id="EV37W_cAb1lumJegeBz7-23" value="" style="endArrow=none;dashed=1;html=1;rounded=0;exitX=0.468;exitY=0.8;exitDx=0;exitDy=0;exitPerimeter=0;strokeColor=#0000FF;" edge="1" parent="1" source="EV37W_cAb1lumJegeBz7-1">
          <mxGeometry width="50" height="50" relative="1" as="geometry">
            <mxPoint x="260" y="416" as="sourcePoint" />
            <mxPoint x="260" y="276" as="targetPoint" />
          </mxGeometry>
        </mxCell>
        <mxCell id="EV37W_cAb1lumJegeBz7-24" value="&lt;font color=&quot;#0000ff&quot;&gt;Harbor nginx용&lt;/font&gt;&lt;div&gt;&lt;font color=&quot;#0000ff&quot;&gt;포트&lt;/font&gt;&lt;/div&gt;" style="text;strokeColor=#0000FF;align=center;fillColor=none;html=1;verticalAlign=middle;whiteSpace=wrap;rounded=0;dashed=1;" vertex="1" parent="1">
          <mxGeometry x="220" y="440" width="82" height="30" as="geometry" />
        </mxCell>
        <mxCell id="EV37W_cAb1lumJegeBz7-25" value="" style="endArrow=none;dashed=1;html=1;rounded=0;strokeColor=#0000FF;" edge="1" parent="1">
          <mxGeometry width="50" height="50" relative="1" as="geometry">
            <mxPoint x="170" y="440" as="sourcePoint" />
            <mxPoint x="169.70999999999998" y="350" as="targetPoint" />
          </mxGeometry>
        </mxCell>
        <mxCell id="EV37W_cAb1lumJegeBz7-26" value="&lt;font color=&quot;#0000ff&quot;&gt;SSL 인증 처리&lt;/font&gt;" style="text;strokeColor=#0000FF;align=center;fillColor=none;html=1;verticalAlign=middle;whiteSpace=wrap;rounded=0;dashed=1;" vertex="1" parent="1">
          <mxGeometry x="129" y="440" width="82" height="30" as="geometry" />
        </mxCell>
        <mxCell id="EV37W_cAb1lumJegeBz7-27" value="Other Services" style="rounded=1;whiteSpace=wrap;html=1;" vertex="1" parent="1">
          <mxGeometry x="294" y="200" width="120" height="40" as="geometry" />
        </mxCell>
      </root>
    </mxGraphModel>
  </diagram>
</mxfile>
